<svg width="24" height="24" viewBox="0 0 24 24" fill="none" xmlns="http://www.w3.org/2000/svg">
<path d="M11.394 11.2509L2.27515 7.41145C2.14451 7.35642 2 7.45236 2 7.59414V17.8587C2 18.1181 2.15791 18.3514 2.39877 18.4477L11.2434 21.9855C11.3736 22.0376 11.5153 21.9417 11.5153 21.8015V11.4336C11.5153 11.3539 11.4675 11.2819 11.394 11.2509Z" fill="#838383"/>
<path d="M12.2265 10.1602L21.0407 6.44902C21.1991 6.38233 21.2033 6.15936 21.0476 6.08669L12.4179 2.0595C12.2478 1.98017 12.0514 1.98017 11.8814 2.0595L3.25169 6.08669C3.09591 6.15936 3.10016 6.38233 3.25859 6.44902L12.0727 10.1602C12.1219 10.181 12.1774 10.181 12.2265 10.1602Z" fill="#838383"/>
<path d="M12.784 11.4336V21.8015C12.784 21.9417 12.9256 22.0376 13.0558 21.9855L21.9005 18.4477C22.1413 18.3513 22.2993 18.1181 22.2993 17.8587V7.59414C22.2993 7.45236 22.1548 7.35642 22.0241 7.41145L12.9053 11.2509C12.8318 11.2819 12.784 11.3539 12.784 11.4336Z" fill="#838383"/>
</svg>
