<svg width="24" height="22" viewBox="0 0 24 22" fill="none" xmlns="http://www.w3.org/2000/svg">
<path d="M11.1006 5.60949C17.0811 5.60949 21.9292 4.35376 21.9292 2.80474C21.9292 1.25573 17.0811 0 11.1006 0C5.12017 0 0.27204 1.25573 0.27204 2.80474C0.27204 4.35376 5.12017 5.60949 11.1006 5.60949Z" fill="#838383"/>
<path d="M3.42907 8.59228C5.59283 9.22804 8.31788 9.60262 11.1024 9.5782C17.2469 9.52433 20.1192 8.09013 20.1192 8.09013C21.2879 7.59537 21.9539 7.04702 21.9539 6.54774V4.27284C21.9539 4.24597 21.9509 4.21968 21.9469 4.19373C21.567 4.8256 20.6274 5.29916 19.7615 5.6192V7.06165C19.7615 7.26036 19.6005 7.42146 19.4017 7.42146C19.2029 7.42146 19.0419 7.26036 19.0419 7.06165V5.85907C18.8248 5.92431 18.6282 5.97742 18.4662 6.01854V7.76927C18.4662 8.03424 18.2514 8.24902 17.9865 8.24902C17.7216 8.24902 17.5067 8.03424 17.5067 7.76927V6.22564C15.7096 6.56497 13.4966 6.76536 11.1024 6.76536C5.41259 6.76536 0.743019 5.63488 0.25766 4.19373C0.253534 4.21968 0.250704 4.24602 0.250704 4.27284V6.59735C0.250751 7.26165 1.43894 8.00737 3.42907 8.59228Z" fill="#838383"/>
<path d="M23.9934 10.3862C23.6136 11.0181 22.6739 11.4917 21.808 11.8117V13.2541C21.808 13.4529 21.647 13.6139 21.4482 13.6139C21.2494 13.6139 21.0884 13.4529 21.0884 13.2541V12.0516C20.8713 12.1168 20.6747 12.1699 20.5127 12.2111V13.9617C20.5127 14.2267 20.2979 14.4415 20.0329 14.4415C19.7681 14.4415 19.5532 14.2267 19.5532 13.9617V12.4181C17.7561 12.7574 15.5431 12.9578 13.1489 12.9578C7.45906 12.9578 2.78949 11.8274 2.30418 10.3862C2.30006 10.4121 2.29723 10.4385 2.29723 10.4653V12.7898C2.29723 13.4542 3.48546 14.1999 5.47555 14.7848C7.6393 15.4206 10.3644 15.7951 13.1489 15.7707C19.2933 15.7168 22.1656 14.2826 22.1656 14.2826C23.3343 13.7878 24.0003 13.2395 24.0003 12.7403V10.4654C24.0005 10.4385 23.9976 10.4122 23.9934 10.3862Z" fill="#838383"/>
<path d="M10.8515 19.0349C8.45731 19.0349 6.24429 18.8345 4.4472 18.4952V20.0389C4.4472 20.3038 4.23232 20.5186 3.96746 20.5186C3.70249 20.5186 3.48771 20.3038 3.48771 20.0389V18.2881C3.3257 18.247 3.1291 18.1939 2.91201 18.1287V19.3312C2.91201 19.5299 2.75096 19.691 2.5522 19.691C2.35344 19.691 2.19239 19.5299 2.19239 19.3312V17.8888C1.3265 17.5687 0.386868 17.0952 0.0070043 16.4633C0.00287848 16.4892 0 16.5156 0 16.5423V18.8172C0 19.3165 0.666032 19.8649 1.83474 20.3596C1.83474 20.3596 4.70703 21.7938 10.8515 21.8477C13.6361 21.8722 16.3611 21.4975 18.5248 20.8618C20.5149 20.277 21.7032 19.5312 21.7032 18.8668V16.5424C21.7032 16.5155 21.7003 16.4893 21.6962 16.4633C21.2108 17.9043 16.5413 19.0349 10.8515 19.0349Z" fill="#838383"/>
<path d="M11.4572 10.6382C8.67372 10.7129 5.94761 10.288 3.784 9.65222C3.24299 9.49324 2.7617 9.32226 2.34701 9.14437C2.55954 10.6449 7.32222 11.8445 13.1675 11.8445C19.1479 11.8445 23.9961 10.5888 23.9961 9.03973C23.9961 8.48639 23.3771 7.97047 22.3089 7.53577V7.60764C22.3089 8.13205 21.5746 8.71063 20.2944 9.22434C20.2944 9.22434 17.4777 10.4765 11.4572 10.6382Z" fill="#838383"/>
<path d="M10.8802 17.9263C16.7254 17.9263 21.4881 16.7266 21.7007 15.2261C21.2859 15.404 20.8046 15.5749 20.2638 15.734C18.0999 16.3697 15.374 16.7946 12.5905 16.7199C6.56993 16.5582 3.75338 15.3061 3.75338 15.3061C2.47313 14.7924 1.73883 14.2137 1.73883 13.6894V13.6176C0.670724 14.0523 0.0515631 14.5681 0.0515631 15.1216C0.0515152 16.6705 4.89964 17.9263 10.8802 17.9263Z" fill="#838383"/>
</svg>
