<svg width="24" height="24" viewBox="0 0 24 24" fill="none" xmlns="http://www.w3.org/2000/svg">
<g clip-path="url(#clip0_3278_1109)">
<path d="M11.1006 6.60949C17.0811 6.60949 21.9292 5.35376 21.9292 3.80474C21.9292 2.25573 17.0811 1 11.1006 1C5.12017 1 0.27204 2.25573 0.27204 3.80474C0.27204 5.35376 5.12017 6.60949 11.1006 6.60949Z" fill="#838383"/>
<path d="M3.42907 9.59228C5.59283 10.228 8.31788 10.6026 11.1024 10.5782C17.2469 10.5243 20.1192 9.09013 20.1192 9.09013C21.2879 8.59537 21.9539 8.04702 21.9539 7.54774V5.27284C21.9539 5.24597 21.9509 5.21968 21.9469 5.19373C21.567 5.8256 20.6274 6.29916 19.7615 6.6192V8.06165C19.7615 8.26036 19.6005 8.42146 19.4017 8.42146C19.2029 8.42146 19.0419 8.26036 19.0419 8.06165V6.85907C18.8248 6.92431 18.6282 6.97742 18.4662 7.01854V8.76927C18.4662 9.03424 18.2514 9.24902 17.9865 9.24902C17.7216 9.24902 17.5067 9.03424 17.5067 8.76927V7.22564C15.7096 7.56497 13.4966 7.76536 11.1024 7.76536C5.41259 7.76536 0.743019 6.63488 0.25766 5.19373C0.253534 5.21968 0.250704 5.24602 0.250704 5.27284V7.59735C0.250751 8.26165 1.43894 9.00737 3.42907 9.59228Z" fill="#838383"/>
<path d="M23.9934 11.3862C23.6136 12.0181 22.6739 12.4917 21.808 12.8117V14.2541C21.808 14.4529 21.647 14.6139 21.4482 14.6139C21.2494 14.6139 21.0884 14.4529 21.0884 14.2541V13.0516C20.8713 13.1168 20.6747 13.1699 20.5127 13.2111V14.9617C20.5127 15.2267 20.2979 15.4415 20.0329 15.4415C19.7681 15.4415 19.5532 15.2267 19.5532 14.9617V13.4181C17.7561 13.7574 15.5431 13.9578 13.1489 13.9578C7.45906 13.9578 2.78949 12.8274 2.30418 11.3862C2.30006 11.4121 2.29723 11.4385 2.29723 11.4653V13.7898C2.29723 14.4542 3.48546 15.1999 5.47555 15.7848C7.6393 16.4206 10.3644 16.7951 13.1489 16.7707C19.2933 16.7168 22.1656 15.2826 22.1656 15.2826C23.3343 14.7878 24.0003 14.2395 24.0003 13.7403V11.4654C24.0005 11.4385 23.9976 11.4122 23.9934 11.3862Z" fill="#838383"/>
<path d="M10.8515 20.0349C8.45731 20.0349 6.24429 19.8345 4.4472 19.4952V21.0389C4.4472 21.3038 4.23232 21.5186 3.96746 21.5186C3.70249 21.5186 3.48771 21.3038 3.48771 21.0389V19.2881C3.3257 19.247 3.1291 19.1939 2.91201 19.1287V20.3312C2.91201 20.5299 2.75096 20.691 2.5522 20.691C2.35344 20.691 2.19239 20.5299 2.19239 20.3312V18.8888C1.3265 18.5687 0.386868 18.0952 0.0070043 17.4633C0.00287848 17.4892 0 17.5156 0 17.5423V19.8172C0 20.3165 0.666032 20.8649 1.83474 21.3596C1.83474 21.3596 4.70703 22.7938 10.8515 22.8477C13.6361 22.8722 16.3611 22.4975 18.5248 21.8618C20.5149 21.277 21.7032 20.5312 21.7032 19.8668V17.5424C21.7032 17.5155 21.7003 17.4893 21.6962 17.4633C21.2108 18.9043 16.5413 20.0349 10.8515 20.0349Z" fill="#838383"/>
<path d="M11.4572 11.6382C8.67372 11.7129 5.94761 11.288 3.784 10.6522C3.24299 10.4932 2.7617 10.3223 2.34701 10.1444C2.55954 11.6449 7.32222 12.8445 13.1675 12.8445C19.1479 12.8445 23.9961 11.5888 23.9961 10.0397C23.9961 9.48639 23.3771 8.97047 22.3089 8.53577V8.60764C22.3089 9.13205 21.5746 9.71063 20.2944 10.2243C20.2944 10.2243 17.4777 11.4765 11.4572 11.6382Z" fill="#838383"/>
<path d="M10.8802 18.9263C16.7254 18.9263 21.4881 17.7266 21.7007 16.2261C21.2859 16.404 20.8046 16.5749 20.2638 16.734C18.0999 17.3697 15.374 17.7946 12.5905 17.7199C6.56993 17.5582 3.75338 16.3061 3.75338 16.3061C2.47313 15.7924 1.73883 15.2137 1.73883 14.6894V14.6176C0.670724 15.0523 0.0515631 15.5681 0.0515631 16.1216C0.0515152 17.6705 4.89964 18.9263 10.8802 18.9263Z" fill="#838383"/>
</g>
<defs>
<clipPath id="clip0_3278_1109">
<rect width="24" height="24" fill="white"/>
</clipPath>
</defs>
</svg>
