<svg width="24" height="24" viewBox="0 0 24 24" fill="none" xmlns="http://www.w3.org/2000/svg">
<path fill-rule="evenodd" clip-rule="evenodd" d="M24 12C24 5.37309 18.6269 0 12 0C5.37309 0 0 5.37309 0 12C0 17.989 4.38761 22.9537 10.1252 23.8549V15.4696H7.07748V12H10.1252V9.35562C10.1252 6.34843 11.9173 4.68621 14.6578 4.68621C15.9707 4.68621 17.3444 4.92077 17.3444 4.92077V7.87398H15.8306C14.3406 7.87398 13.8748 8.79875 13.8748 9.7488V11.9999H17.2026L16.671 15.4695H13.8747V23.8549C19.6123 22.9553 23.9999 17.9906 23.9999 11.9999L24 12Z" fill="#1977F3"/>
<path fill-rule="evenodd" clip-rule="evenodd" d="M16.6716 15.4696L17.2032 12H13.8755V9.74887C13.8755 8.80048 14.3395 7.87406 15.8313 7.87406H17.345V4.92084C17.345 4.92084 15.9715 4.68628 14.6585 4.68628C11.918 4.68628 10.1258 6.34683 10.1258 9.35569V12.0001H7.07812V15.4697H10.1258V23.855C10.7367 23.9511 11.3628 24.0001 12.0006 24.0001C12.6385 24.0001 13.2646 23.9494 13.8755 23.855V15.4697H16.6717L16.6716 15.4696Z" fill="#FEFEFE"/>
</svg>
