<svg width="23" height="24" viewBox="0 0 23 24" fill="none" xmlns="http://www.w3.org/2000/svg">
<path d="M6.68626 1.60941C8.47665 0.55368 10.5089 -0.00150879 12.5775 3.07955e-06C11.5464 1.82387 11.0052 3.89238 11.0084 5.9972C11.0115 8.10202 11.5589 10.1688 12.5954 11.9895C13.6319 13.8102 15.121 15.3204 16.9126 16.3681C18.7042 17.4157 20.7351 17.9639 22.8008 17.9573C21.9031 19.5568 20.6559 20.9242 19.156 21.9534C17.6561 22.9826 15.9437 23.6461 14.1516 23.8923C12.3595 24.1386 10.5358 23.961 8.82192 23.3734C7.10802 22.7858 5.54994 21.8039 4.26846 20.5039C2.98698 19.2038 2.01652 17.6206 1.43231 15.8768C0.848097 14.133 0.665829 12.2756 0.899634 10.4485C1.13344 8.62134 1.77703 6.87362 2.78053 5.34078C3.78403 3.80794 5.12047 2.53116 6.68626 1.60941Z" fill="white"/>
</svg>
