<svg width="24" height="24" viewBox="0 0 24 24" fill="none" xmlns="http://www.w3.org/2000/svg">
<path d="M6.28364 4.68L4.32 2.72727L2.78182 4.26545L4.73455 6.21818L6.28364 4.68ZM3.27273 10.8545H0V13.0364H3.27273V10.8545ZM13.0909 0H10.9091V3.21818H13.0909V0ZM21.2182 4.26545L19.68 2.72727L17.7273 4.68L19.2655 6.21818L21.2182 4.26545ZM17.7164 19.2109L19.6691 21.1745L21.2073 19.6364L19.2436 17.6836L17.7164 19.2109ZM20.7273 10.8545V13.0364H24V10.8545H20.7273ZM12 5.4C10.7054 5.4 9.43993 5.78388 8.36354 6.50311C7.28715 7.22233 6.4482 8.24459 5.95279 9.44062C5.45738 10.6366 5.32776 11.9527 5.58031 13.2224C5.83287 14.4921 6.45627 15.6584 7.37167 16.5738C8.28706 17.4892 9.45335 18.1126 10.723 18.3651C11.9927 18.6177 13.3088 18.4881 14.5048 17.9927C15.7009 17.4973 16.7231 16.6583 17.4423 15.5819C18.1616 14.5055 18.5455 13.24 18.5455 11.9455C18.5455 10.2095 17.8558 8.54463 16.6283 7.31712C15.4008 6.08961 13.736 5.4 12 5.4ZM10.9091 23.8909H13.0909V20.6727H10.9091V23.8909ZM2.78182 19.6255L4.32 21.1636L6.27273 19.2L4.73455 17.6618L2.78182 19.6255Z" fill="#5D6879"/>
</svg>
