<svg width="24" height="24" viewBox="0 0 24 24" fill="none" xmlns="http://www.w3.org/2000/svg">
<path d="M11.988 6.00054e-06C9.61514 0.00237886 7.29624 0.708183 5.32443 2.0282C3.35262 3.34822 1.81642 5.22319 0.910011 7.41611C0.00359888 9.60903 -0.23233 12.0215 0.232047 14.3484C0.696424 16.6754 1.84026 18.8125 3.51897 20.4895C5.19767 22.1665 7.33589 23.3082 9.66333 23.7703C11.9908 24.2323 14.403 23.994 16.595 23.0854C18.787 22.1768 20.6604 20.6387 21.9785 18.6656C23.2965 16.6925 24 14.3729 24 12C24 10.4231 23.6892 8.86172 23.0854 7.40503C22.4816 5.94834 21.5966 4.62494 20.481 3.51048C19.3655 2.39602 18.0412 1.51236 16.5839 0.910005C15.1266 0.307655 13.5649 -0.00157087 11.988 6.00054e-06ZM20.304 7.2H16.764C16.3884 5.71375 15.8323 4.27908 15.108 2.92801C17.2969 3.68161 19.1414 5.19807 20.304 7.2ZM12 2.44801C13.008 3.90229 13.7814 5.50581 14.292 7.2H9.708C10.2186 5.50581 10.992 3.90229 12 2.44801ZM2.71201 14.4C2.29599 12.827 2.29599 11.173 2.71201 9.6H6.768C6.66345 10.3959 6.60735 11.1973 6.6 12C6.60735 12.8027 6.66345 13.6041 6.768 14.4H2.71201ZM3.696 16.8H7.236C7.61157 18.2863 8.1677 19.7209 8.892 21.072C6.70077 20.3225 4.855 18.805 3.696 16.8ZM7.236 7.2H3.696C4.855 5.19502 6.70077 3.67749 8.892 2.92801C8.1677 4.27908 7.61157 5.71375 7.236 7.2ZM12 21.552C10.992 20.0977 10.2186 18.4942 9.708 16.8H14.292C13.7814 18.4942 13.008 20.0977 12 21.552ZM14.808 14.4H9.192C9.07347 13.6053 9.00932 12.8034 9 12C9.00884 11.1965 9.07299 10.3946 9.192 9.6H14.808C14.927 10.3946 14.9912 11.1965 15 12C14.9907 12.8034 14.9265 13.6053 14.808 14.4ZM15.108 21.072C15.8323 19.7209 16.3884 18.2863 16.764 16.8H20.304C19.1414 18.8019 17.2969 20.3184 15.108 21.072ZM17.232 14.4C17.3366 13.6041 17.3927 12.8027 17.4 12C17.3927 11.1973 17.3366 10.3959 17.232 9.6H21.288C21.704 11.173 21.704 12.827 21.288 14.4H17.232Z" fill="white"/>
</svg>
