<svg width="24" height="24" viewBox="0 0 24 24" fill="none" xmlns="http://www.w3.org/2000/svg">
<path d="M5.18182 1V22H1V1H5.18182ZM7.27273 1H17.7325C18.8846 1 19.8182 1.9429 19.8182 3.0895V19.9105C19.8182 21.0644 18.8846 22 17.7325 22H7.27273V1ZM20.8636 5.2H22.9545V9.4H20.8636V5.2ZM20.8636 11.5H22.9545V15.7H20.8636V11.5ZM13.5455 11.5C14.1 11.5 14.6318 11.2787 15.0239 10.8849C15.4161 10.4911 15.6364 9.95695 15.6364 9.4C15.6364 8.84304 15.4161 8.3089 15.0239 7.91508C14.6318 7.52125 14.1 7.3 13.5455 7.3C12.9909 7.3 12.4591 7.52125 12.067 7.91508C11.6748 8.3089 11.4545 8.84304 11.4545 9.4C11.4545 9.95695 11.6748 10.4911 12.067 10.8849C12.4591 11.2787 12.9909 11.5 13.5455 11.5ZM10.4091 15.7H16.6818C16.6818 14.8646 16.3514 14.0634 15.7632 13.4726C15.175 12.8819 14.3773 12.55 13.5455 12.55C12.7136 12.55 11.9159 12.8819 11.3277 13.4726C10.7395 14.0634 10.4091 14.8646 10.4091 15.7Z" fill="url(#paint0_linear_1976:4094)"/>
<defs>
<linearGradient id="paint0_linear_1976:4094" x1="19" y1="1" x2="1.5" y2="22" gradientUnits="userSpaceOnUse">
<stop stop-color="#6466F8"/>
<stop offset="1" stop-color="#9E7BEF"/>
</linearGradient>
</defs>
</svg>
