<svg width="24" height="24" viewBox="0 0 24 24" fill="none" xmlns="http://www.w3.org/2000/svg">
<g clip-path="url(#clip0_3278_1130)">
<path d="M22.429 5.59901L12.5743 0.147685C12.2183 -0.0518325 11.7817 -0.0518325 11.4256 0.147685L1.57771 5.59901C1.22168 5.79209 1 6.15895 1 6.55155V17.4542C1 17.8468 1.22168 18.2137 1.57771 18.4067L11.4324 23.8581C11.7884 24.0576 12.225 24.0576 12.5811 23.8581L22.429 18.4067C22.785 18.2072 23.0067 17.8468 23.0067 17.4542V6.55155C23 6.15895 22.785 5.79209 22.429 5.59901ZM10.0284 13.4124C10.0284 13.7921 9.86717 13.9787 9.53801 13.9787C9.4574 13.9787 9.38351 13.9659 9.31633 13.9466C9.24915 13.9273 9.1887 13.8886 9.13496 13.8371C9.08121 13.7857 9.02747 13.7342 8.97373 13.6634C8.92671 13.599 8.87297 13.5282 8.82595 13.4639L7.11969 10.9602V13.4767C7.11969 13.6376 7.07938 13.7663 6.99877 13.85C6.91816 13.9337 6.8174 13.9787 6.68977 13.9787C6.56213 13.9787 6.46137 13.9337 6.38076 13.85C6.30015 13.7663 6.26656 13.6441 6.26656 13.4767V10.1686C6.26656 10.027 6.28 9.9176 6.31358 9.84036C6.35389 9.75026 6.41435 9.67946 6.50839 9.62798C6.59572 9.57005 6.69648 9.54431 6.79725 9.54431C6.87786 9.54431 6.95175 9.55718 7.00549 9.58292C7.06595 9.60867 7.11297 9.64085 7.16 9.6859C7.20702 9.73095 7.24732 9.78244 7.29435 9.85324C7.34137 9.92403 7.38839 9.99483 7.43542 10.0656L9.18198 12.595V10.0399C9.18198 9.87254 9.22228 9.75026 9.29618 9.66659C9.37007 9.58292 9.47083 9.54431 9.59847 9.54431C9.7261 9.54431 9.83358 9.58292 9.90747 9.66659C9.98137 9.75026 10.0217 9.87254 10.0217 10.0399V13.4124H10.0284ZM14.0253 10.1879C13.9582 10.2523 13.8507 10.278 13.7029 10.278H11.916V11.3786H13.414C13.5551 11.3786 13.6559 11.4108 13.723 11.4687C13.7902 11.5266 13.8238 11.6103 13.8238 11.7068C13.8238 11.8034 13.7902 11.887 13.723 11.945C13.6559 12.0029 13.5484 12.0351 13.414 12.0351H11.916V13.451C11.916 13.6312 11.8757 13.7663 11.7884 13.85C11.7011 13.9337 11.5936 13.9787 11.4659 13.9787C11.3316 13.9787 11.2241 13.9337 11.1368 13.85C11.0495 13.7599 11.0092 13.6312 11.0092 13.451V10.1429C11.0092 10.0206 11.0293 9.9176 11.0696 9.83393C11.1099 9.7567 11.1704 9.69877 11.251 9.66016C11.3316 9.62154 11.4391 9.60867 11.5667 9.60867H13.7096C13.8574 9.60867 13.9649 9.64085 14.0321 9.69877C14.0992 9.76313 14.1395 9.84036 14.1395 9.94334C14.1261 10.0463 14.0925 10.13 14.0253 10.1879ZM18.0626 10.233C17.982 10.2973 17.8678 10.3295 17.7133 10.3295H16.7191V13.451C16.7191 13.6312 16.6788 13.7663 16.5914 13.85C16.5108 13.9337 16.3966 13.9787 16.269 13.9787C16.1346 13.9787 16.0272 13.9337 15.9398 13.85C15.8525 13.7599 15.8122 13.6312 15.8122 13.451V10.3295H14.818C14.6635 10.3295 14.5493 10.2973 14.4754 10.233C14.4015 10.1686 14.3612 10.0785 14.3612 9.97552C14.3612 9.86611 14.4015 9.776 14.4821 9.71164C14.5627 9.64728 14.6769 9.6151 14.8247 9.6151H17.7133C17.8678 9.6151 17.9887 9.64728 18.0626 9.71164C18.1365 9.776 18.1768 9.86611 18.1768 9.97552C18.1835 10.0785 18.1432 10.1622 18.0626 10.233Z" fill="#838383"/>
</g>
<defs>
<clipPath id="clip0_3278_1130">
<rect width="22" height="24" fill="white" transform="translate(1)"/>
</clipPath>
</defs>
</svg>
