<svg width="24" height="24" viewBox="0 0 24 24" fill="none" xmlns="http://www.w3.org/2000/svg">
<path d="M3.60156 4H10.0016V4.80001H3.60156V4Z" fill="#838383"/>
<path d="M10.3984 14.6355V18.1656L13.5985 19.9456L16.7985 18.1656V14.6355L13.5985 12.8555L10.3984 14.6355ZM13.8035 14.0555L15.8035 15.2555C15.9235 15.3255 15.9985 15.4555 15.9985 15.6005V17.2005H15.1985V15.8255L13.5784 14.8555L12.1734 15.5555L11.8134 14.8404L13.4134 14.0404C13.5434 13.9804 13.6884 13.9854 13.8034 14.0554L13.8035 14.0555Z" fill="#838383"/>
<path d="M22.0002 8.80008H20.8002V3.60003C20.8002 3.49503 20.7602 3.39003 20.6852 3.31503L17.4852 0.115C17.4102 0.0400004 17.3102 0 17.2002 0H2.00002C1.78002 0 1.60002 0.180002 1.60002 0.400004V6.43983C0.669995 6.62983 0 7.44985 0 8.39985V22C0 23.105 0.895003 24 2.00002 24H22.0002C23.1052 24 24.0002 23.105 24.0002 22V10.7999C24.0002 9.69486 23.1052 8.79986 22.0002 8.79986V8.80008ZM17.6002 1.36504L19.4352 3.20008H17.6002V1.36504ZM2.40002 2.80007H11.2001V6.0001H2.40002V2.80007ZM2.00002 23.2003C1.33999 23.2003 0.800008 22.6603 0.800008 22.0003V8.40013C0.800008 7.89013 1.12001 7.44012 1.60002 7.2701V22.0003C1.60002 22.2203 1.78002 22.4003 2.00002 22.4003H3.13004C2.96004 22.8803 2.51006 23.2003 2.00002 23.2003V23.2003ZM3.20003 10.8001V21.6003H2.40002V6.80011H11.6001C11.8201 6.80011 12.0001 6.62011 12.0001 6.40011V2.40007C12.0001 2.18007 11.8201 2.00006 11.6001 2.00006H2.40002V0.800053H16.8002V3.60008C16.8002 3.82008 16.9802 4.00008 17.2002 4.00008H20.0002V8.80013H5.20005C4.09503 8.80013 3.20003 9.69513 3.20003 10.8001ZM17.6002 18.4002C17.6002 18.5452 17.5202 18.6802 17.3952 18.7502L13.7951 20.7502C13.6751 20.8152 13.5251 20.8152 13.4051 20.7502L9.80509 18.7502C9.68009 18.6802 9.60009 18.5452 9.60009 18.4002V14.4002C9.60009 14.2552 9.68009 14.1202 9.80509 14.0502L13.4051 12.0502C13.5251 11.9852 13.6751 11.9852 13.7951 12.0502L17.3952 14.0502C17.5202 14.1202 17.6002 14.2552 17.6002 14.4002V18.4002Z" fill="#838383"/>
</svg>
