<svg width="24" height="24" viewBox="0 0 24 24" fill="none" xmlns="http://www.w3.org/2000/svg">
<path d="M8.51327 5.83789C8.0643 5.83789 7.71484 6.18716 7.71484 6.63632V7.48451H9.31152V6.63632C9.31152 6.21222 8.96226 5.83789 8.51327 5.83789Z" fill="url(#paint0_linear_3278_1138)"/>
<path d="M9.11153 10.5773C9.11153 10.908 8.84353 11.176 8.51286 11.176C8.18219 11.176 7.91406 10.908 7.91406 10.5773C7.91406 10.2466 8.18223 9.97852 8.51286 9.97852C8.84349 9.97852 9.11153 10.2467 9.11153 10.5773Z" fill="url(#paint1_linear_3278_1138)"/>
<path d="M21.1601 6.86071L21.1353 6.76099C21.0853 6.61133 21.0105 6.48655 20.9108 6.38684L14.8983 0.299498C14.8234 0.224667 14.7486 0.174721 14.6487 0.124776L14.3243 0.0250595L4.79415 0C3.24741 0 2 1.24741 2 2.79414V21.2059C2 22.7526 3.24741 24 4.79415 24H18.3909C19.9376 24 21.185 22.7526 21.185 21.2059L21.1852 7.11017L21.1601 6.86071ZM14.9231 3.21837L18.0665 6.41173H15.6965C15.2724 6.41173 14.9231 6.06246 14.9231 5.63838L14.9231 3.21837ZM5.76714 12.1248C5.51759 12.1248 5.31817 11.9004 5.31817 11.6259L5.29328 7.93365C5.29328 7.6841 5.51777 7.48468 5.7922 7.48468H6.74027V6.63649C6.74027 5.66351 7.5387 4.86508 8.51168 4.86508C9.48465 4.86508 10.2831 5.66351 10.2831 6.63649V7.48468H11.2312C11.5056 7.48468 11.7301 7.68428 11.7301 7.93365L11.7052 11.6259C11.7052 11.9004 11.5056 12.1248 11.2562 12.1248H5.76714ZM18.4657 20.8816H14.6738V19.9586H18.4908V20.8816H18.4657ZM18.4657 18.4366H11.3805V17.5136H18.4657V18.4366ZM18.4657 16.0914H11.3805V15.1684H18.4657V16.0914Z" fill="url(#paint2_linear_3278_1138)"/>
<defs>
<linearGradient id="paint0_linear_3278_1138" x1="9.31152" y1="5.83789" x2="7.66304" y2="7.52201" gradientUnits="userSpaceOnUse">
<stop stop-color="#F3D17C"/>
<stop offset="1" stop-color="#EFBF1C"/>
</linearGradient>
<linearGradient id="paint1_linear_3278_1138" x1="9.11153" y1="9.97852" x2="7.91406" y2="11.2401" gradientUnits="userSpaceOnUse">
<stop stop-color="#F3D17C"/>
<stop offset="1" stop-color="#EFBF1C"/>
</linearGradient>
<linearGradient id="paint2_linear_3278_1138" x1="21.1852" y1="-6.76938e-07" x2="-2.49743" y2="19.9457" gradientUnits="userSpaceOnUse">
<stop stop-color="#F3D17C"/>
<stop offset="1" stop-color="#EFBF1C"/>
</linearGradient>
</defs>
</svg>
