<svg width="24" height="24" viewBox="0 0 24 24" fill="none" xmlns="http://www.w3.org/2000/svg">
<path d="M18.1891 17.8337C16.6532 17.8337 15.3867 19.0732 15.3867 20.6361C15.3867 22.172 16.6262 23.4384 18.1891 23.4384C19.725 23.4384 20.9914 22.1989 20.9914 20.6361C20.9645 19.1002 19.725 17.8337 18.1891 17.8337Z" fill="url(#paint0_linear_1976:4041)"/>
<path d="M23.1194 4.46864C23.0655 4.46864 22.9846 4.4417 22.9038 4.4417H5.92804L5.65859 2.63634C5.49691 1.45073 4.47298 0.561523 3.26042 0.561523H1.07783C0.485022 0.561523 0 1.04655 0 1.63935C0 2.23215 0.485022 2.71718 1.07783 2.71718H3.26042C3.39515 2.71718 3.50294 2.82496 3.52988 2.95969L5.20051 14.3308C5.41608 15.7589 6.65558 16.8367 8.11064 16.8367H19.32C20.7212 16.8367 21.9338 15.8397 22.2302 14.4655L23.9816 5.70814C24.0894 5.14228 23.7122 4.57643 23.1194 4.46864Z" fill="url(#paint1_linear_1976:4041)"/>
<path d="M11.3174 20.5014C11.2635 19.0193 10.024 17.8337 8.54204 17.8337C6.97919 17.9146 5.79358 19.208 5.84747 20.7439C5.90136 22.2259 7.11392 23.4115 8.59593 23.4115H8.64982C10.1857 23.3307 11.3983 22.0373 11.3174 20.5014Z" fill="url(#paint2_linear_1976:4041)"/>
<defs>
<linearGradient id="paint0_linear_1976:4041" x1="18.1891" y1="17.8337" x2="18.1891" y2="23.4384" gradientUnits="userSpaceOnUse">
<stop stop-color="#6A69F8"/>
<stop offset="1" stop-color="#9B7AF1"/>
</linearGradient>
<linearGradient id="paint1_linear_1976:4041" x1="12" y1="0.561523" x2="12" y2="16.8367" gradientUnits="userSpaceOnUse">
<stop stop-color="#6A69F8"/>
<stop offset="1" stop-color="#9B7AF1"/>
</linearGradient>
<linearGradient id="paint2_linear_1976:4041" x1="8.58348" y1="17.8337" x2="8.58348" y2="23.4115" gradientUnits="userSpaceOnUse">
<stop stop-color="#6A69F8"/>
<stop offset="1" stop-color="#9B7AF1"/>
</linearGradient>
</defs>
</svg>
