<svg width="24" height="24" viewBox="0 0 24 24" fill="none" xmlns="http://www.w3.org/2000/svg">
<path d="M12 24C18.6274 24 24 18.6274 24 12C24 5.37258 18.6274 0 12 0C5.37258 0 0 5.37258 0 12C0 18.6274 5.37258 24 12 24Z" fill="url(#paint0_linear_1976:4065)"/>
<path d="M9.80117 17.5C9.41237 17.5 9.47847 17.3532 9.34437 16.983L8.20117 13.2207L17.0012 8" fill="#C8DAEA"/>
<path d="M9.80078 17.5C10.1008 17.5 10.2333 17.3628 10.4008 17.2L12.0008 15.6442L10.005 14.4407" fill="#A9C9DD"/>
<path d="M10.0028 14.4408L14.8388 18.0137C15.3907 18.3182 15.7889 18.1605 15.9264 17.5014L17.8949 8.22508C18.0964 7.41708 17.5869 7.05048 17.0589 7.29018L5.49986 11.7473C4.71086 12.0638 4.71556 12.504 5.35606 12.7001L8.32236 13.626L15.1897 9.29347C15.5139 9.09687 15.8115 9.20248 15.5673 9.41928" fill="url(#paint1_linear_1976:4065)"/>
<defs>
<linearGradient id="paint0_linear_1976:4065" x1="16.008" y1="4.008" x2="10.008" y2="18" gradientUnits="userSpaceOnUse">
<stop stop-color="#37AEE2"/>
<stop offset="1" stop-color="#1E96C8"/>
</linearGradient>
<linearGradient id="paint1_linear_1976:4065" x1="13.5031" y1="12.0007" x2="15.3759" y2="16.2676" gradientUnits="userSpaceOnUse">
<stop stop-color="#EFF7FC"/>
<stop offset="1" stop-color="white"/>
</linearGradient>
</defs>
</svg>
