<svg width="22" height="22" viewBox="0 0 22 22" fill="none" xmlns="http://www.w3.org/2000/svg">
<path d="M19.879 17.455H16.485C14.3463 17.455 12.6062 15.715 12.6062 13.5762C12.6062 11.4375 14.3463 9.69742 16.485 9.69742H19.879C20.147 9.69742 20.3639 9.48055 20.3639 9.21255V7.75799C20.3639 6.74125 19.5753 5.91438 18.5788 5.83419L15.7943 0.970507C15.5362 0.520684 15.1195 0.199181 14.6209 0.0656796C14.1247 -0.0669128 13.6058 0.00272435 13.1616 0.261227L3.61595 5.81856H1.93943C0.869827 5.81856 0 6.68834 0 7.75799V19.3945C0 20.4641 0.869782 21.3339 1.93943 21.3339H18.4245C19.4941 21.3339 20.3639 20.4641 20.3639 19.3945V17.9399C20.3639 17.6719 20.147 17.455 19.879 17.455ZM16.3956 3.97327L17.4521 5.81856H13.2261L16.3956 3.97327ZM5.54324 5.81856L13.6498 1.09928C13.869 0.970962 14.1252 0.936871 14.37 1.00223C14.6176 1.06851 14.8241 1.22856 14.9524 1.45251L14.9534 1.45429L7.4574 5.81856H5.54324Z" fill="url(#paint0_linear_2160:10821)"/>
<path d="M19.8788 10.6675H16.4848C14.8806 10.6675 13.5757 11.9724 13.5757 13.5766C13.5757 15.1808 14.8806 16.4857 16.4848 16.4857H19.8788C20.6809 16.4857 21.3334 15.8333 21.3334 15.0312V12.122C21.3334 11.3199 20.6809 10.6675 19.8788 10.6675ZM16.4848 14.5463C15.9503 14.5463 15.5151 14.1112 15.5151 13.5766C15.5151 13.0421 15.9503 12.6069 16.4848 12.6069C17.0194 12.6069 17.4545 13.0421 17.4545 13.5766C17.4545 14.1112 17.0194 14.5463 16.4848 14.5463Z" fill="url(#paint1_linear_2160:10821)"/>
<defs>
<linearGradient id="paint0_linear_2160:10821" x1="10.1819" y1="0" x2="10.1819" y2="21.3339" gradientUnits="userSpaceOnUse">
<stop stop-color="#6466F8"/>
<stop offset="1" stop-color="#9D7BF0"/>
</linearGradient>
<linearGradient id="paint1_linear_2160:10821" x1="17.4545" y1="10.6675" x2="17.4545" y2="16.4857" gradientUnits="userSpaceOnUse">
<stop stop-color="#6466F8"/>
<stop offset="1" stop-color="#9D7BF0"/>
</linearGradient>
</defs>
</svg>
