<svg width="20" height="20" viewBox="0 0 20 20" fill="none" xmlns="http://www.w3.org/2000/svg">
<path d="M9.8906 20C15.353 20 19.7812 15.5228 19.7812 10C19.7812 4.47715 15.353 0 9.8906 0C4.42817 0 0 4.47715 0 10C0 15.5228 4.42817 20 9.8906 20Z" fill="white"/>
<path d="M8.22266 9.32841L14.5084 5.69784V2.95898L8.22266 6.58956V9.32841Z" fill="#D3AE36"/>
<path d="M5.42969 15.0598L13.3344 10.442V7.70312L5.42969 12.2891V15.0598Z" fill="#D3AE36"/>
<path d="M8.22266 17.0351L8.34964 10.6976L10.7623 9.32812L10.6036 15.6976" fill="#D3AE36"/>
<path d="M10.669 12.9583L10.7008 12.0029L8.35156 13.3405L10.669 12.9583Z" fill="#D3AE36"/>
</svg>
