<svg width="159" height="42" viewBox="0 0 159 42" fill="none" xmlns="http://www.w3.org/2000/svg">
<path d="M20.7703 42C32.2414 42 41.5405 32.598 41.5405 21C41.5405 9.40202 32.2414 0 20.7703 0C9.29917 0 0 9.40202 0 21C0 32.598 9.29917 42 20.7703 42Z" fill="#D3AE36"/>
<path d="M17.2656 19.5955L30.4656 11.9713V6.21973L17.2656 13.8439V19.5955Z" fill="white"/>
<path d="M11.3984 31.6336L27.9984 21.9362V16.1846L11.3984 25.8151V31.6336Z" fill="white"/>
<path d="M17.2656 35.7804L17.5323 22.4715L22.599 19.5957L22.2656 32.9715" fill="white"/>
<path d="M22.3979 27.2193L22.4646 25.2129L17.5312 28.0218L22.3979 27.2193Z" fill="white"/>
<path d="M50.668 23.5417V11.9717H57.268V13.6437H52.3346V16.9207H56.468V18.5927H52.3346V23.5417H50.668Z" fill="#D3AE36"/>
<path d="M65.9341 21.0672H60.7341L59.6008 23.5417H57.8008L63.3341 11.7041L68.8008 23.5417H67.0008L65.9341 21.0672ZM65.2008 19.3952L63.3341 15.3824L61.5341 19.3952H65.2008Z" fill="#D3AE36"/>
<path d="M72.2693 18.1914V23.5417H70.3359L70.4026 11.7041L76.0693 20.4652L81.7359 11.8379L81.6693 23.5417H79.8026L79.8693 18.1245L76.1359 23.8092L72.2693 18.1914Z" fill="#D3AE36"/>
<path d="M96.2693 20.7997L97.2693 22.0704L96.9359 22.4048C96.0026 23.2742 94.6026 23.7423 93.3359 23.7423C90.0026 23.7423 87.3359 21.0672 87.3359 17.7901C87.3359 14.513 90.0026 11.8379 93.3359 11.8379C94.6026 11.8379 96.0026 12.306 96.9359 13.1755L97.4026 13.5767L96.2026 14.7137C95.4026 13.9111 94.5359 13.443 93.2026 13.443C90.8693 13.443 88.9359 15.3825 88.9359 17.7232C88.9359 20.064 90.8693 22.0035 93.2026 22.0035C94.5359 22.0704 95.4693 21.6022 96.2693 20.7997Z" fill="#D3AE36"/>
<path d="M100.667 13.6437V16.9207H105.533V18.5927H100.667V21.8698H105.4L106.333 23.5417H99V11.9717H106.333V13.6437H100.667Z" fill="#D3AE36"/>
<path d="M110.27 16.6531V23.5417H108.27V11.7041L115.47 19.1945V11.9716H117.336V23.8092L110.27 16.6531Z" fill="#D3AE36"/>
<path d="M128.667 11.9717V13.6437H124.667V23.5417H123V13.6437H118.934V11.9717H128.667Z" fill="#D3AE36"/>
<path d="M136.802 23.5417L133.935 19.529H132.135V23.5417H130.469V11.9717H134.069C137.069 11.9717 138.469 13.5099 138.469 15.65C138.469 17.4558 137.469 18.9271 135.802 19.3952L138.802 23.5417H136.802ZM132.135 17.9239H134.602C135.802 17.9239 136.802 17.322 136.802 15.7838C136.802 14.2456 135.802 13.6437 134.602 13.6437H132.135V17.9239Z" fill="#D3AE36"/>
<path d="M147.468 21.5353H142.668L141.802 23.5417H139.602L145.068 11.7041L150.535 23.5417H148.335L147.468 21.5353ZM147.068 19.8633L145.002 15.3156L142.935 19.8633H147.068Z" fill="#D3AE36"/>
<path d="M157.867 21.9366L159 23.6086H152V11.9717H153.667V21.8698H157.867V21.9366Z" fill="#D3AE36"/>
<path d="M54.9341 31.0981H54.4008L53.4674 27.6204L52.5341 31.0981H52.0008L50.8008 26.8848H51.2675L52.2675 30.5631L53.2675 26.8848H53.6674L54.6674 30.5631L55.6674 26.8848H56.0674L54.9341 31.0981Z" fill="#D3AE36"/>
<path d="M59.6664 31.0981V29.0918H57.4664V31.0981H57.0664V26.8848H57.4664V28.7574H59.6664V26.8848H60.0664V31.0981H59.6664Z" fill="#D3AE36"/>
<path d="M61.332 31.0981V26.8848H63.6654V27.286H61.7987V28.7574H63.5987V29.1587H61.7987V30.7638H63.6654V31.165H61.332V31.0981Z" fill="#D3AE36"/>
<path d="M67.3339 29.1587C67.0672 29.4262 66.8005 29.56 66.4672 29.56L67.6672 31.165H67.1339L65.6672 29.2256H66.1339C66.3339 29.2256 66.4672 29.2256 66.6005 29.1587C67.0672 29.0249 67.2672 28.6905 67.2672 28.2893C67.2672 27.888 67.1339 27.6205 66.8005 27.4867C66.6672 27.4198 66.5339 27.3529 66.4005 27.3529C66.2672 27.3529 66.1339 27.3529 66.0005 27.3529H65.2672V31.2319H64.8672V27.0186H65.9339C66.0005 27.0186 66.1339 27.0186 66.2005 27.0186C66.2672 27.0186 66.4005 27.0186 66.4672 27.0186C66.6672 27.0186 66.8672 27.0854 67.0005 27.1523C67.5339 27.4198 67.7339 27.8211 67.7339 28.3561C67.6672 28.6236 67.6005 28.8912 67.3339 29.1587Z" fill="#D3AE36"/>
<path d="M68.7344 31.0981V26.8848H71.0677V27.286H69.201V28.7574H71.0011V29.1587H69.201V30.7638H71.0677V31.165H68.7344V31.0981Z" fill="#D3AE36"/>
<path d="M74.6656 27.2865V28.8248H76.3323V29.226H74.6656V31.1655H74.2656V26.9521H76.399V27.3534H74.6656V27.2865Z" fill="#D3AE36"/>
<path d="M80.4008 31.0981L79.8008 29.6937H77.8675L77.2675 31.0981H76.8008L78.6008 26.8848H79.0675L80.8675 31.0981H80.4008ZM78.8008 27.3529L78.0008 29.2924H79.6675L78.8008 27.3529Z" fill="#D3AE36"/>
<path d="M84.7341 31.0981L82.2008 27.3529V31.0981H81.8008V26.8848H82.4008L84.7341 30.4294V26.8848H85.1341V31.0981H84.7341Z" fill="#D3AE36"/>
<path d="M88.3328 30.8311C88.0661 31.0986 87.7995 31.1655 87.4661 31.1655C87.0661 31.1655 86.7995 31.0317 86.5328 30.8311C86.2661 30.6304 86.1328 30.296 86.1328 29.8948H86.5328C86.5328 30.4967 86.8662 30.7642 87.3995 30.7642C87.6662 30.7642 87.8661 30.6973 87.9995 30.4967C88.1995 30.3629 88.2661 30.1623 88.2661 29.8948C88.2661 29.6272 88.1995 29.4266 87.9995 29.2929C87.9328 29.226 87.7995 29.1591 87.6661 29.0922C87.5995 29.0253 87.4661 29.0253 87.3328 28.9585C87.1328 28.8916 86.9995 28.8247 86.9328 28.8247C86.7995 28.7578 86.6661 28.6909 86.5995 28.6241C86.3995 28.4234 86.2661 28.1559 86.2661 27.8215C86.2661 27.4871 86.3995 27.2196 86.5995 27.019C86.7995 26.8183 87.1328 26.6846 87.4661 26.6846C87.7995 26.6846 88.0661 26.8183 88.2661 27.019C88.4661 27.2196 88.5995 27.4871 88.5995 27.8215H88.1995C88.1995 27.6209 88.1328 27.4202 87.9995 27.2865C87.8661 27.1527 87.6661 27.0858 87.4661 27.0858C87.2661 27.0858 87.0661 27.1527 86.9328 27.2865C86.7995 27.4202 86.7328 27.6209 86.7328 27.8215C86.7328 28.089 86.8662 28.2228 87.0662 28.3565C87.1328 28.4234 87.2662 28.4234 87.3995 28.4903L87.7328 28.6241C88.0662 28.6909 88.3328 28.8916 88.4661 29.0253C88.6661 29.226 88.7328 29.4935 88.7328 29.8279C88.7328 30.296 88.5995 30.6304 88.3328 30.8311Z" fill="#D3AE36"/>
<path d="M93.9344 30.898C93.801 30.9649 93.601 31.0318 93.4677 31.0986C93.3344 31.0986 93.1344 31.1655 92.9344 31.1655H91.7344V26.9521H92.801C93.1344 26.9521 93.3344 27.019 93.601 27.0859C93.8677 27.2197 94.001 27.3534 94.1344 27.6209C94.201 27.7547 94.201 27.8885 94.201 28.0891C94.201 28.2897 94.1344 28.4235 94.0677 28.5572C94.001 28.691 93.8677 28.8248 93.7344 28.8916C94.201 29.0923 94.4677 29.4267 94.4677 29.9617C94.401 30.363 94.2677 30.6974 93.9344 30.898ZM93.601 27.5541C93.5344 27.4203 93.401 27.3534 93.201 27.3534C93.1344 27.3534 93.0677 27.3534 93.001 27.2865C92.9344 27.2865 92.8677 27.2865 92.801 27.2865H92.2677V28.7579H93.001C93.0677 28.7579 93.1344 28.7579 93.201 28.7579C93.3344 28.7579 93.4677 28.691 93.5344 28.6241C93.7344 28.4904 93.8677 28.2897 93.8677 28.0222C93.7344 27.8216 93.7344 27.6878 93.601 27.5541ZM93.5344 29.1592C93.401 29.0923 93.2677 29.0923 93.1344 29.0923C93.0677 29.0923 93.001 29.0923 92.9344 29.0923H92.201V30.7643H93.001H93.201C93.3344 30.7643 93.4677 30.6974 93.601 30.6974C93.8677 30.5636 94.0677 30.363 94.0677 29.9617C94.001 29.5604 93.8677 29.2929 93.5344 29.1592Z" fill="#D3AE36"/>
<path d="M95.3984 31.0981V26.8848H97.7318V27.286H95.8651V28.7574H97.6651V29.1587H95.8651V30.7638H97.7318V31.165H95.3984V31.0981Z" fill="#D3AE36"/>
<path d="M102.934 30.0281C102.534 30.8306 101.867 31.2319 101.001 31.2319C100.401 31.2319 99.8674 31.0313 99.4674 30.5631C99.0008 30.1618 98.8008 29.6268 98.8008 29.0249C98.8008 28.423 99.0008 27.888 99.4674 27.4867C99.8674 27.0854 100.401 26.8848 101.001 26.8848C101.667 26.8848 102.201 27.1523 102.667 27.6204C102.801 27.7542 102.867 27.888 102.934 28.0217H102.467C102.134 27.4867 101.601 27.2192 101.001 27.2192C100.534 27.2192 100.134 27.4198 99.7341 27.7542C99.4008 28.0886 99.2008 28.5567 99.2008 29.0249C99.2008 29.493 99.4008 29.8943 99.7341 30.2956C100.067 30.63 100.534 30.8306 101.001 30.8306C101.267 30.8306 101.601 30.7638 101.867 30.63C102.134 30.4962 102.334 30.2956 102.534 30.0281H102.934Z" fill="#D3AE36"/>
<path d="M107.667 30.5636C107.201 30.9649 106.734 31.2324 106.067 31.2324C105.467 31.2324 104.934 31.0317 104.534 30.6305C104.067 30.2292 103.867 29.6942 103.867 29.0922C103.867 28.4903 104.067 27.9553 104.534 27.4871C105.001 27.0859 105.467 26.8184 106.134 26.8184C106.734 26.8184 107.267 27.019 107.734 27.4871C108.201 27.8884 108.401 28.4235 108.401 29.0254C108.334 29.6273 108.067 30.0954 107.667 30.5636ZM107.334 27.7547C107.001 27.4203 106.534 27.2196 106.067 27.2196C105.534 27.2196 105.134 27.4203 104.801 27.7547C104.467 28.0891 104.267 28.5572 104.267 29.0254C104.267 29.4935 104.467 29.9617 104.801 30.2961C105.134 30.6305 105.601 30.8311 106.067 30.8311C106.534 30.8311 107.001 30.6305 107.334 30.2961C107.667 29.9617 107.867 29.4935 107.867 29.0254C107.867 28.4903 107.734 28.0891 107.334 27.7547Z" fill="#D3AE36"/>
<path d="M113.398 31.0981V27.286L111.798 31.0981H111.465L109.865 27.286V31.0981H109.465V26.8848H110.132L111.665 30.4962L113.198 26.8848H113.865V31.0981H113.398Z" fill="#D3AE36"/>
<path d="M115.066 31.0981V26.8848H117.4V27.286H115.533V28.7574H117.333V29.1587H115.533V30.7638H117.4V31.165H115.066V31.0981Z" fill="#D3AE36"/>
<path d="M121.002 27.2865V28.8248H122.668V29.226H121.002V31.1655H120.602V26.9521H122.735V27.3534H121.002V27.2865Z" fill="#D3AE36"/>
<path d="M126.799 31.0981L126.199 29.6937H124.266L123.666 31.0981H123.199L124.999 26.8848H125.466L127.266 31.0981H126.799ZM125.199 27.3529L124.399 29.2924H126.066L125.199 27.3529Z" fill="#D3AE36"/>
<path d="M131.133 31.0981L128.599 27.3529V31.0981H128.199V26.8848H128.799L131.133 30.4294V26.8848H131.533V31.0981H131.133Z" fill="#D3AE36"/>
<path d="M134.598 31.0981H134.198L132.465 26.8848H132.932L134.398 30.63L135.865 26.8848H136.331L134.598 31.0981Z" fill="#D3AE36"/>
<path d="M137.199 31.0981V26.8848H139.533V27.286H137.666V28.7574H139.466V29.1587H137.666V30.7638H139.533V31.165H137.199V31.0981Z" fill="#D3AE36"/>
<path d="M142.665 30.8311C142.398 31.0986 142.132 31.1655 141.798 31.1655C141.398 31.1655 141.132 31.0317 140.865 30.8311C140.598 30.6304 140.465 30.296 140.465 29.8948H140.865C140.865 30.4967 141.198 30.7642 141.732 30.7642C141.998 30.7642 142.198 30.6973 142.332 30.4967C142.532 30.3629 142.598 30.1623 142.598 29.8948C142.598 29.6272 142.532 29.4266 142.332 29.2929C142.265 29.226 142.132 29.1591 141.998 29.0922C141.932 29.0253 141.798 29.0253 141.665 28.9585C141.465 28.8916 141.332 28.8247 141.265 28.8247C141.132 28.7578 140.998 28.6909 140.932 28.6241C140.732 28.4234 140.598 28.1559 140.598 27.8215C140.598 27.4871 140.732 27.2196 140.932 27.019C141.132 26.8183 141.465 26.6846 141.798 26.6846C142.132 26.6846 142.398 26.8183 142.598 27.019C142.798 27.2196 142.932 27.4871 142.932 27.8215H142.532C142.532 27.6209 142.465 27.4202 142.332 27.2865C142.198 27.1527 141.998 27.0858 141.798 27.0858C141.598 27.0858 141.398 27.1527 141.265 27.2865C141.132 27.4202 141.065 27.6209 141.065 27.8215C141.065 28.089 141.198 28.2228 141.398 28.3565C141.465 28.4234 141.598 28.4234 141.732 28.4903L142.065 28.6241C142.398 28.6909 142.665 28.8916 142.798 29.0253C142.998 29.226 143.065 29.4935 143.065 29.8279C142.998 30.296 142.932 30.6304 142.665 30.8311Z" fill="#D3AE36"/>
<path d="M145.002 27.286V31.165H144.602V27.286H143.602V26.8848H145.935V27.286H145.002Z" fill="#D3AE36"/>
<path d="M150.534 30.5636C150.068 30.9649 149.601 31.2324 148.934 31.2324C148.334 31.2324 147.801 31.0317 147.401 30.6305C146.934 30.2292 146.734 29.6942 146.734 29.0922C146.734 28.4903 146.934 27.9553 147.401 27.4871C147.868 27.0859 148.334 26.8184 149.001 26.8184C149.601 26.8184 150.134 27.019 150.601 27.4871C151.068 27.8884 151.268 28.4235 151.268 29.0254C151.201 29.6273 150.934 30.0954 150.534 30.5636ZM150.201 27.7547C149.868 27.4203 149.401 27.2196 148.934 27.2196C148.401 27.2196 148.001 27.4203 147.668 27.7547C147.334 28.0891 147.134 28.5572 147.134 29.0254C147.134 29.4935 147.334 29.9617 147.668 30.2961C148.001 30.6305 148.468 30.8311 148.934 30.8311C149.401 30.8311 149.868 30.6305 150.201 30.2961C150.534 29.9617 150.734 29.4935 150.734 29.0254C150.734 28.4903 150.601 28.0891 150.201 27.7547Z" fill="#D3AE36"/>
<path d="M154.732 29.1587C154.466 29.4262 154.199 29.56 153.866 29.56L155.066 31.165H154.532L153.066 29.2256H153.532C153.732 29.2256 153.866 29.2256 153.999 29.1587C154.466 29.0249 154.666 28.6905 154.666 28.2893C154.666 27.888 154.532 27.6205 154.199 27.4867C154.066 27.4198 153.932 27.3529 153.799 27.3529C153.666 27.3529 153.532 27.3529 153.399 27.3529H152.666V31.2319H152.266V27.0186H153.332C153.399 27.0186 153.532 27.0186 153.599 27.0186C153.666 27.0186 153.799 27.0186 153.866 27.0186C154.066 27.0186 154.266 27.0854 154.399 27.1523C154.932 27.4198 155.132 27.8211 155.132 28.3561C155.132 28.6236 154.999 28.8912 154.732 29.1587Z" fill="#D3AE36"/>
<path d="M158.067 30.8311C157.801 31.0986 157.534 31.1655 157.201 31.1655C156.801 31.1655 156.534 31.0317 156.267 30.8311C156.001 30.6304 155.867 30.296 155.867 29.8948H156.267C156.267 30.4967 156.601 30.7642 157.134 30.7642C157.401 30.7642 157.601 30.6973 157.734 30.4967C157.934 30.3629 158.001 30.1623 158.001 29.8948C158.001 29.6272 157.934 29.4266 157.734 29.2929C157.667 29.226 157.534 29.1591 157.401 29.0922C157.334 29.0253 157.201 29.0253 157.067 28.9585C156.867 28.8916 156.734 28.8247 156.667 28.8247C156.534 28.7578 156.401 28.6909 156.334 28.6241C156.134 28.4234 156.001 28.1559 156.001 27.8215C156.001 27.4871 156.134 27.2196 156.334 27.019C156.534 26.8183 156.867 26.6846 157.201 26.6846C157.534 26.6846 157.801 26.8183 158.001 27.019C158.201 27.2196 158.334 27.4871 158.334 27.8215H157.934C157.934 27.6209 157.867 27.4202 157.734 27.2865C157.601 27.1527 157.401 27.0858 157.201 27.0858C157.001 27.0858 156.801 27.1527 156.667 27.2865C156.534 27.4202 156.467 27.6209 156.467 27.8215C156.467 28.089 156.601 28.2228 156.801 28.3565C156.867 28.4234 157.001 28.4234 157.134 28.4903L157.467 28.6241C157.801 28.6909 158.067 28.8916 158.201 29.0253C158.401 29.226 158.467 29.4935 158.467 29.8279C158.467 30.296 158.334 30.6304 158.067 30.8311Z" fill="#D3AE36"/>
</svg>
