<svg width="16" height="16" viewBox="0 0 16 16" fill="none" xmlns="http://www.w3.org/2000/svg">
<path d="M8.32877 16C9.50216 15.8323 10.5308 14.6007 11.1781 12.7818C10.2424 12.571 9.28751 12.4579 8.32877 12.4444V16Z" fill="#CCCCCC"/>
<path d="M10.3287 15.709C10.3998 15.6886 10.4707 15.6681 10.541 15.6455C10.6004 15.6266 10.6589 15.6062 10.7174 15.586C10.7867 15.5623 10.8556 15.538 10.9243 15.5122C10.9829 15.4902 11.0408 15.4668 11.0989 15.4434C11.166 15.4155 11.2329 15.3878 11.2991 15.36C11.3569 15.3348 11.4144 15.3084 11.4718 15.2819C11.5368 15.2516 11.6015 15.2208 11.6656 15.1887C11.722 15.1603 11.7782 15.1313 11.8345 15.1016C11.8975 15.0681 11.9602 15.034 12.0224 14.9989C12.0787 14.9674 12.133 14.9357 12.1878 14.9031C12.2488 14.866 12.3095 14.8289 12.3698 14.7918C12.4238 14.7578 12.4777 14.7233 12.5309 14.6877C12.5902 14.6481 12.6487 14.6069 12.707 14.5658C12.7593 14.5287 12.8114 14.4917 12.8625 14.4544C12.9188 14.4115 12.9765 14.367 13.033 14.3225C13.0831 14.2829 13.1331 14.2436 13.1825 14.203C13.2386 14.1568 13.2925 14.1089 13.347 14.0611C13.3948 14.0191 13.4429 13.9775 13.4896 13.9344C13.5434 13.8848 13.5957 13.8334 13.648 13.7824C13.6934 13.7381 13.7393 13.6945 13.7836 13.6491C13.7919 13.6407 13.7997 13.6316 13.8082 13.6229C13.1945 13.3093 12.5482 13.0631 11.8804 12.8889C11.5331 13.9847 10.915 14.9777 10.0822 15.7778C10.105 15.7719 10.1278 15.7672 10.1506 15.7613C10.2108 15.7446 10.2699 15.7263 10.3287 15.709Z" fill="#CCCCCC"/>
<path d="M16 8.22222H12.6234C12.6106 9.58016 12.4193 10.93 12.0548 12.2351C12.7982 12.4396 13.5155 12.7337 14.1921 13.1111C15.3028 11.7322 15.9387 10.013 16 8.22222Z" fill="#CCCCCC"/>
<path d="M8.32877 7.77778H12.0548C12.0402 6.4239 11.8501 5.07837 11.4899 3.77778C10.4524 4.02502 9.39277 4.15705 8.32877 4.17169V7.77778Z" fill="#CCCCCC"/>
<path d="M8.32877 0V3.55556C9.28751 3.54195 10.2424 3.42897 11.1781 3.21822C10.5308 1.3993 9.50216 0.167658 8.32877 0Z" fill="#CCCCCC"/>
<path d="M8.32877 11.8282C9.39277 11.843 10.4524 11.975 11.4899 12.2222C11.8501 10.9217 12.0402 9.57605 12.0548 8.22222H8.32877V11.8282Z" fill="#CCCCCC"/>
<path d="M14.1921 2.88889C13.5155 3.26633 12.7982 3.56035 12.0548 3.76486C12.4193 5.06997 12.6106 6.41984 12.6234 7.77778H16C15.9385 5.98716 15.3027 4.26793 14.1921 2.88889Z" fill="#CCCCCC"/>
<path d="M13.8082 2.37645C13.8 2.36816 13.7922 2.35919 13.7841 2.35063C13.7396 2.30523 13.6934 2.26146 13.6481 2.21729C13.596 2.16632 13.5439 2.1148 13.4901 2.06533C13.4436 2.02238 13.3954 1.98173 13.3476 1.93892C13.2931 1.89107 13.2386 1.84282 13.1825 1.79661C13.1339 1.75597 13.0841 1.71709 13.0347 1.67808C12.9784 1.63296 12.9207 1.5881 12.8628 1.54502C12.812 1.50709 12.7605 1.4704 12.7087 1.4337C12.65 1.39183 12.5909 1.3501 12.5311 1.31028C12.4785 1.27521 12.4251 1.24096 12.3717 1.20739C12.3108 1.16865 12.2501 1.13073 12.1882 1.09403C12.134 1.06181 12.0792 1.03001 12.0243 0.999153C11.9614 0.963542 11.8984 0.929017 11.8348 0.895309C11.7785 0.867445 11.7224 0.837134 11.6661 0.80927C11.6014 0.77692 11.5362 0.745794 11.4693 0.715212C11.413 0.688707 11.3559 0.662882 11.298 0.637736C11.2314 0.608513 11.1641 0.582144 11.097 0.55428C11.039 0.530901 10.9814 0.507795 10.9229 0.485775C10.8546 0.45995 10.7854 0.435756 10.7162 0.412105C10.6578 0.391717 10.5993 0.371465 10.5399 0.352436C10.4697 0.329873 10.3994 0.309348 10.3271 0.288688C10.2686 0.271698 10.2099 0.254436 10.1507 0.238941C10.128 0.232824 10.105 0.228067 10.0822 0.222222C10.9145 1.02226 11.5321 2.01517 11.8793 3.11111C12.5474 2.93686 13.1944 2.69057 13.8082 2.37645Z" fill="#CCCCCC"/>
<path d="M0 7.77778H3.37673C3.38952 6.41984 3.5808 5.06997 3.94521 3.76486C3.20196 3.56049 2.48456 3.26647 1.808 2.88889C0.697183 4.26779 0.0613302 5.98716 0 7.77778Z" fill="#CCCCCC"/>
<path d="M7.67123 16V12.4444C6.71249 12.458 5.75763 12.571 4.82192 12.7818C5.46907 14.6007 6.49784 15.8323 7.67123 16Z" fill="#CCCCCC"/>
<path d="M7.67123 8.22222H3.94521C3.95977 9.57605 4.14974 10.9217 4.51006 12.2222C5.54758 11.9748 6.60709 11.8428 7.67123 11.8282V8.22222Z" fill="#CCCCCC"/>
<path d="M7.67123 0C6.49784 0.167658 5.46907 1.3993 4.82192 3.21822C5.75763 3.42911 6.71249 3.54209 7.67123 3.55556V0Z" fill="#CCCCCC"/>
<path d="M7.67123 4.17169C6.60723 4.15705 5.54758 4.02502 4.51006 3.77778C4.14974 5.07837 3.95977 6.4239 3.94521 7.77778H7.67123V4.17169Z" fill="#CCCCCC"/>
<path d="M5.91781 0.222222C5.895 0.22807 5.87219 0.23283 5.84938 0.238678C5.78974 0.254454 5.73093 0.271998 5.67157 0.288998C5.60094 0.309398 5.53086 0.329933 5.45996 0.352237C5.40018 0.371413 5.34137 0.391813 5.28256 0.412077C5.21372 0.436149 5.14474 0.460084 5.07658 0.485652C5.01777 0.507956 4.95978 0.531076 4.90152 0.55474C4.8346 0.582619 4.76754 0.610499 4.70145 0.638243C4.64346 0.663403 4.58616 0.689786 4.52872 0.716306C4.46373 0.746634 4.39901 0.777506 4.33484 0.809602C4.2785 0.838025 4.22216 0.867129 4.16596 0.896777C4.10289 0.930233 4.04037 0.964504 3.97826 0.999592C3.92192 1.03074 3.86654 1.0627 3.81226 1.09534C3.75112 1.13178 3.69066 1.16945 3.63047 1.20672C3.57633 1.24099 3.5226 1.27553 3.46943 1.31117C3.41006 1.35074 3.35153 1.39195 3.29326 1.43316C3.24091 1.47028 3.18883 1.50728 3.13758 1.54468C3.08 1.58752 3.02504 1.63212 2.96705 1.67659C2.91703 1.71617 2.8666 1.75547 2.81769 1.79641C2.76135 1.84238 2.7079 1.88998 2.65362 1.93758C2.60552 1.98001 2.55702 2.02122 2.51002 2.06514C2.45657 2.11451 2.40449 2.16578 2.35228 2.21665C2.30693 2.26098 2.26076 2.30477 2.21624 2.35033C2.20813 2.35877 2.2003 2.36801 2.19178 2.37658C2.80546 2.69047 3.45211 2.93676 4.12006 3.11111C4.46744 2.01523 5.08524 1.0223 5.91781 0.222222Z" fill="#CCCCCC"/>
<path d="M2.34963 13.7821C2.40197 13.8331 2.45404 13.8846 2.50776 13.9342C2.55446 13.977 2.60255 14.0177 2.65049 14.0605C2.70503 14.1085 2.75957 14.1566 2.81562 14.2028C2.86426 14.2432 2.91385 14.2822 2.96358 14.3213C3.01991 14.3664 3.0761 14.4113 3.13572 14.4546C3.18641 14.4923 3.23793 14.5287 3.28945 14.5661C3.34825 14.6078 3.4076 14.6495 3.46749 14.6896C3.52011 14.7247 3.57355 14.759 3.62699 14.7927C3.68785 14.8313 3.74857 14.8692 3.81053 14.9059C3.8648 14.9382 3.91961 14.9699 3.97456 15.0009C4.03748 15.0365 4.10054 15.071 4.16415 15.1046C4.22034 15.1325 4.27666 15.1628 4.33299 15.1906C4.3977 15.223 4.46295 15.2541 4.52986 15.2848C4.58618 15.311 4.64333 15.3369 4.70131 15.3621C4.76794 15.3914 4.83511 15.4177 4.90243 15.4456C4.9604 15.469 5.0181 15.4921 5.07663 15.5141C5.14491 15.5401 5.21415 15.5643 5.28339 15.5879C5.34191 15.6082 5.40043 15.6285 5.45978 15.6474C5.53012 15.67 5.60046 15.6907 5.67272 15.7112C5.73125 15.7282 5.79004 15.7454 5.84912 15.7611C5.87192 15.7672 5.895 15.7719 5.91781 15.7778C5.08501 14.9776 4.46707 13.9848 4.11964 12.8889C3.45183 13.0633 2.80532 13.3094 2.19178 13.6232C2.20002 13.6315 2.20785 13.6405 2.2161 13.6491C2.25827 13.6942 2.30375 13.738 2.34963 13.7821Z" fill="#CCCCCC"/>
<path d="M1.808 13.1111C2.48456 12.7337 3.20196 12.4396 3.94521 12.2351C3.5808 10.93 3.38952 9.58016 3.37673 8.22222H0C0.0614677 10.0128 0.697183 11.7321 1.808 13.1111Z" fill="#CCCCCC"/>
</svg>
