<svg width="16" height="16" viewBox="0 0 16 16" fill="none" xmlns="http://www.w3.org/2000/svg">
<path d="M8 16C12.4183 16 16 12.4183 16 8C16 3.58172 12.4183 0 8 0C3.58172 0 0 3.58172 0 8C0 12.4183 3.58172 16 8 16Z" fill="#22A0DD"/>
<path d="M6.53151 11.6663C6.27231 11.6663 6.31638 11.5685 6.22698 11.3217L5.46484 8.81348L11.3315 5.33301" fill="#C8DAEA"/>
<path d="M6.53516 11.6665C6.73516 11.6665 6.82349 11.575 6.93516 11.4665L8.00182 10.4293L6.67129 9.62695" fill="#A9C9DD"/>
<path d="M6.66981 9.62783L9.89381 12.0098C10.2617 12.2128 10.5272 12.1076 10.6189 11.6682L11.9312 5.48403C12.0655 4.94537 11.7259 4.70097 11.3739 4.86077L3.66787 7.83217C3.14187 8.04317 3.14501 8.33663 3.57201 8.46737L5.54954 9.08463L10.1277 6.1963C10.3439 6.06523 10.5423 6.13563 10.3795 6.28017" fill="url(#paint0_linear_3210_17358)"/>
<defs>
<linearGradient id="paint0_linear_3210_17358" x1="9.0034" y1="8.00114" x2="10.2519" y2="10.8457" gradientUnits="userSpaceOnUse">
<stop stop-color="#EFF7FC"/>
<stop offset="1" stop-color="white"/>
</linearGradient>
</defs>
</svg>
