<svg width="16" height="13" viewBox="0 0 16 13" fill="none" xmlns="http://www.w3.org/2000/svg">
<path d="M14.362 3.23657C14.3717 3.37762 14.3717 3.51868 14.3717 3.66103C14.3717 7.99855 11.0697 13.001 5.03173 13.001V12.9984C3.2481 13.001 1.50152 12.4901 0 11.5268C0.259354 11.558 0.520008 11.5736 0.781312 11.5743C2.25944 11.5756 3.69531 11.0796 4.85818 10.1663C3.4535 10.1397 2.22173 9.22382 1.79143 7.88675C2.28349 7.98165 2.79049 7.96215 3.27345 7.83019C1.74203 7.52079 0.64026 6.17527 0.64026 4.61264C0.64026 4.59834 0.64026 4.58469 0.64026 4.57104C1.09657 4.8252 1.60748 4.96625 2.13008 4.98185C0.687711 4.01788 0.243104 2.09905 1.11412 0.59883C2.78074 2.64961 5.23973 3.89633 7.87942 4.02828C7.61487 2.88817 7.97627 1.69345 8.82909 0.891985C10.1512 -0.350835 12.2306 -0.287134 13.4734 1.03434C14.2086 0.889385 14.9132 0.61963 15.558 0.237424C15.3129 0.997286 14.8001 1.64275 14.115 2.0529C14.7656 1.9762 15.4013 1.802 16 1.53614C15.5593 2.19656 15.0042 2.77181 14.362 3.23657Z" fill="#1DA1F2"/>
</svg>
