<svg width="29" height="16" viewBox="0 0 29 16" fill="none" xmlns="http://www.w3.org/2000/svg">
<g clip-path="url(#clip0_3210_17449)">
<path d="M15.8909 8.00013C15.8909 12.4183 12.3336 16 7.94561 16C3.55762 16 0 12.4175 0 8.00013C0 3.58273 3.55736 0 7.94561 0C12.3339 0 15.8909 3.58192 15.8909 8.00013ZM24.6072 8.00013C24.6072 12.1589 22.8286 15.5316 20.6344 15.5316C18.4403 15.5316 16.6616 12.1589 16.6616 8.00013C16.6616 3.84134 18.44 0.468627 20.6342 0.468627C22.8283 0.468627 24.607 3.84026 24.607 8.00013H24.6072ZM28.1724 8.00013C28.1724 11.7254 27.547 14.7472 26.7752 14.7472C26.0034 14.7472 25.3782 11.7262 25.3782 8.00013C25.3782 4.27406 26.0037 1.25309 26.7752 1.25309C27.5467 1.25309 28.1724 4.27379 28.1724 8.00013" fill="white"/>
</g>
<defs>
<clipPath id="clip0_3210_17449">
<rect width="28.1724" height="16" fill="white"/>
</clipPath>
</defs>
</svg>
