<svg width="24" height="16" viewBox="0 0 24 16" fill="none" xmlns="http://www.w3.org/2000/svg">
<path d="M12.0304 15.979L7.30352 15.8922C5.77305 15.862 4.23877 15.9224 2.73831 15.6091C0.455764 15.1409 0.29406 12.8456 0.124854 10.9203C-0.108295 8.21353 -0.018036 5.45763 0.421945 2.77346C0.67033 1.26735 1.64782 0.36865 3.15948 0.270854C8.26243 -0.0840621 13.3993 -0.0420009 18.491 0.12358C19.0287 0.138759 19.5701 0.221724 20.1004 0.316159C22.7178 0.77675 22.7816 3.37784 22.9513 5.56748C23.1205 7.7797 23.049 10.0033 22.7256 12.2005C22.4661 14.0196 21.9697 15.5452 19.8747 15.6925C17.2499 15.8851 14.6852 16.0401 12.0529 15.9907C12.0531 15.979 12.0379 15.979 12.0304 15.979ZM9.25147 11.3734C11.2295 10.2332 13.1699 9.112 15.1366 7.97947C13.1549 6.83929 11.2182 5.71811 9.25147 4.58558V11.3734Z" fill="#FF0000"/>
<path d="M15.5 8L9 4.5V11.5L15.5 8Z" fill="white"/>
</svg>
