<svg width="16" height="16" viewBox="0 0 16 16" fill="none" xmlns="http://www.w3.org/2000/svg">
<path fill-rule="evenodd" clip-rule="evenodd" d="M16 8.00002C16 3.58207 12.418 0 8.00002 0C3.58207 0 0 3.58207 0 8.00002C0 11.9927 2.92508 15.3025 6.75014 15.9033V10.3131H4.71833V8.00002H6.75014V6.2371C6.75014 4.23229 7.9449 3.12415 9.77192 3.12415C10.6472 3.12415 11.563 3.28052 11.563 3.28052V5.24934H10.5538C9.56043 5.24934 9.2499 5.86585 9.2499 6.49922V7.99996H11.4684L11.114 10.313H9.24984V15.9033C13.0749 15.3036 16 11.9938 16 7.99996L16 8.00002Z" fill="#1877F2"/>
<path fill-rule="evenodd" clip-rule="evenodd" d="M11.1144 10.3119L11.4688 7.99886H9.25032V6.49812C9.25032 5.86586 9.55968 5.24824 10.5542 5.24824H11.5634V3.27942C11.5634 3.27942 10.6477 3.12305 9.77235 3.12305C7.94532 3.12305 6.75056 4.23009 6.75056 6.236V7.99892H4.71875V10.312H6.75056V15.9022C7.15779 15.9663 7.57518 15.9989 8.00044 15.9989C8.4257 15.9989 8.84309 15.9652 9.25032 15.9022V10.312H11.1145L11.1144 10.3119Z" fill="#FEFEFE"/>
</svg>
