<svg width="23" height="23" viewBox="0 0 23 23" fill="none" xmlns="http://www.w3.org/2000/svg">
<path d="M11.2109 0.105469C5.13638 0.105469 0.210938 5.03092 0.210938 11.1055C0.210938 17.18 5.13638 22.1055 11.2109 22.1055C17.2855 22.1055 22.2109 17.18 22.2109 11.1055C22.2109 5.03092 17.2855 0.105469 11.2109 0.105469ZM17.4967 6.33471L16.4949 7.29475C16.4065 7.36105 16.3647 7.46908 16.3819 7.57467V14.6387C16.3647 14.7468 16.4065 14.8548 16.4949 14.9186L17.477 15.8787V16.0923H12.5467V15.8885L13.5607 14.9039C13.6614 14.8032 13.6614 14.7738 13.6614 14.624V8.90792L10.8377 16.0677H10.4571L7.17188 8.90792V13.7081C7.14241 13.9095 7.21362 14.1133 7.35603 14.2581L8.67701 15.8566V16.0702H4.92522V15.8566L6.2462 14.2581C6.3158 14.1863 6.3676 14.0991 6.39745 14.0036C6.42729 13.908 6.43436 13.8069 6.41808 13.7081V8.15904C6.43527 8.00435 6.37634 7.85458 6.25848 7.749L5.08482 6.33471V6.12109H8.73103L11.5449 12.2963L14.0223 6.126H17.4967V6.33471Z" fill="#7E7E7E"/>
</svg>
