<svg width="104" height="101" viewBox="0 0 104 101" fill="none" xmlns="http://www.w3.org/2000/svg">
<path d="M64.1301 22.1974H36.91C36.2897 22.1981 35.695 22.4451 35.2564 22.8841C34.8178 23.3232 34.571 23.9184 34.5703 24.5394V85.0955L34.2583 85.1908L27.5808 87.2377C27.2643 87.3343 26.9225 87.3012 26.6303 87.1458C26.3382 86.9903 26.1196 86.7252 26.0226 86.4086L6.15992 21.4651C6.06326 21.1483 6.0962 20.8061 6.25151 20.5136C6.40682 20.2211 6.67179 20.0023 6.98818 19.9053L17.2783 16.7514L47.1096 7.61142L57.3996 4.45753C57.5562 4.40929 57.7207 4.39243 57.8839 4.40792C58.047 4.42341 58.2054 4.47095 58.3502 4.54781C58.4949 4.62467 58.6231 4.72935 58.7274 4.85585C58.8316 4.98235 58.91 5.1282 58.9579 5.28503L64.035 21.8851L64.1301 22.1974Z" fill="#F4F4F4"/>
<path d="M70.0697 21.8845L63.9506 1.87761C63.8488 1.54425 63.6823 1.23425 63.4608 0.965307C63.2392 0.696364 62.9669 0.473755 62.6594 0.310199C62.3519 0.146644 62.0152 0.0453452 61.6685 0.0120969C61.3218 -0.0211514 60.972 0.0143018 60.6391 0.116427L46.1719 4.54904L16.3422 13.6906L1.87499 18.1248C1.20292 18.3314 0.640183 18.7964 0.310305 19.4179C-0.0195719 20.0393 -0.0896425 20.7664 0.115477 21.4395L21.0294 89.8148C21.196 90.3582 21.5322 90.8337 21.9887 91.1718C22.4452 91.5098 22.9978 91.6925 23.5657 91.6931C23.8285 91.6932 24.0898 91.6537 24.3408 91.576L34.2581 88.5376L34.5701 88.4408V88.1145L34.2581 88.2098L24.2488 91.2778C23.6556 91.4588 23.0149 91.3969 22.4672 91.1057C21.9195 90.8144 21.5096 90.3176 21.3273 89.7243L0.415024 21.3474C0.324725 21.0534 0.293254 20.7444 0.32241 20.4382C0.351567 20.132 0.440777 19.8346 0.584938 19.5629C0.729098 19.2913 0.925377 19.0508 1.16253 18.8552C1.39968 18.6596 1.67305 18.5127 1.96699 18.423L16.4342 13.9888L46.264 4.84882L60.7312 0.414644C60.9541 0.346538 61.1859 0.311813 61.419 0.311595C61.9192 0.31272 62.406 0.474155 62.8079 0.772254C63.2099 1.07035 63.5059 1.48945 63.6527 1.96817L69.7437 21.8845L69.8404 22.1968H70.1649L70.0697 21.8845Z" fill="#838383"/>
<path d="M19.1365 19.955C18.8358 19.9548 18.5432 19.8581 18.3015 19.6792C18.0597 19.5003 17.8816 19.2486 17.7933 18.9609L15.7842 12.3921C15.7302 12.2157 15.7115 12.0303 15.7291 11.8466C15.7467 11.6629 15.8002 11.4845 15.8867 11.3215C15.9732 11.1586 16.0909 11.0142 16.2331 10.8968C16.3754 10.7794 16.5393 10.6912 16.7156 10.6372L44.1587 2.22726C44.5147 2.11852 44.8992 2.1556 45.2279 2.33038C45.5567 2.50515 45.8027 2.80334 45.912 3.15948L47.9211 9.72835C48.0297 10.0847 47.9926 10.4696 47.818 10.7986C47.6434 11.1277 47.3455 11.3739 46.9898 11.4834L19.5466 19.8933C19.4137 19.9341 19.2755 19.9549 19.1365 19.955Z" fill="#838383"/>
<path d="M29.6587 7.0168C31.3816 7.0168 32.7783 5.61874 32.7783 3.89414C32.7783 2.16955 31.3816 0.771484 29.6587 0.771484C27.9358 0.771484 26.5391 2.16955 26.5391 3.89414C26.5391 5.61874 27.9358 7.0168 29.6587 7.0168Z" fill="url(#paint0_linear_3121_17620)"/>
<path d="M29.659 5.8727C30.75 5.8727 31.6345 4.9874 31.6345 3.89533C31.6345 2.80327 30.75 1.91797 29.659 1.91797C28.568 1.91797 27.6836 2.80327 27.6836 3.89533C27.6836 4.9874 28.568 5.8727 29.659 5.8727Z" fill="white"/>
<path d="M33.4423 22.4099C33.5389 21.0693 34.7099 20.0613 36.0578 20.1587L97.269 24.5793C98.6169 24.6766 99.6313 25.8424 99.5347 27.1831L94.4081 98.347C94.3115 99.6876 93.1405 100.696 91.7926 100.598L30.5815 96.1776C29.2335 96.0803 28.2191 94.9145 28.3157 93.5738L33.4423 22.4099Z" fill="#F4F4F4"/>
<path d="M68.7804 22.2827L36.0315 19.9176C35.3303 19.8679 34.6381 20.0986 34.1065 20.5591C33.575 21.0195 33.2476 21.6722 33.196 22.3739L28.6211 85.88L28.9391 85.8074L33.5072 22.3964C33.5525 21.7772 33.8414 21.2012 34.3104 20.7949C34.7795 20.3886 35.3903 20.1851 36.0091 20.229L68.8544 22.6011L68.7804 22.2827ZM97.3287 24.3444L36.0315 19.9176C35.3303 19.8679 34.6381 20.0986 34.1065 20.5591C33.575 21.0195 33.2476 21.6722 33.196 22.3739L28.0579 93.6975C28.0083 94.3994 28.2388 95.0924 28.6989 95.6244C29.1589 96.1565 29.8109 96.4843 30.512 96.5359L91.8091 100.963C92.5103 101.012 93.2026 100.782 93.7341 100.321C94.2656 99.8608 94.5931 99.2081 94.6446 98.5064L99.7827 27.1828C99.8323 26.4809 99.6018 25.7879 99.1418 25.2559C98.6818 24.7238 98.0297 24.396 97.3287 24.3444ZM94.3335 98.4839C94.2881 99.1031 93.9992 99.6791 93.5302 100.085C93.0612 100.492 92.4503 100.695 91.8316 100.651L30.5344 96.2245C29.9158 96.179 29.3404 95.8898 28.9345 95.4203C28.5285 94.9508 28.3252 94.3394 28.369 93.72L33.5072 22.3964C33.5525 21.7772 33.8414 21.2012 34.3104 20.7949C34.7795 20.3886 35.3903 20.1851 36.0091 20.229L97.3062 24.6558C97.9249 24.7013 98.5002 24.9905 98.9062 25.46C99.3121 25.9295 99.5155 26.541 99.4716 27.1603L94.3335 98.4839Z" fill="#838383"/>
<path d="M80.4987 30.017L51.8726 27.9496C51.5014 27.9224 51.1562 27.7489 50.9126 27.4672C50.669 27.1855 50.547 26.8186 50.5734 26.447L51.067 19.5949C51.0942 19.2234 51.2675 18.8778 51.5489 18.634C51.8304 18.3902 52.1969 18.2681 52.5682 18.2945L81.1942 20.3618C81.5654 20.3891 81.9107 20.5626 82.1542 20.8443C82.3978 21.126 82.5198 21.4929 82.4935 21.8645L81.9998 28.7165C81.9726 29.0881 81.7993 29.4337 81.5179 29.6775C81.2365 29.9213 80.8699 30.0434 80.4987 30.017Z" fill="#838383"/>
<path d="M66.8464 19.7956C68.5648 19.9198 70.0584 18.6259 70.1823 16.9058C70.3062 15.1857 69.0136 13.6906 67.2951 13.5665C65.5767 13.4424 64.0831 14.7362 63.9592 16.4564C63.8353 18.1765 65.1279 19.6715 66.8464 19.7956Z" fill="url(#paint1_linear_3121_17620)"/>
<path d="M66.9344 18.5775C67.9811 18.6531 68.8908 17.865 68.9663 16.8173C69.0417 15.7696 68.2544 14.8589 67.2077 14.7834C66.161 14.7078 65.2513 15.4958 65.1758 16.5435C65.1004 17.5913 65.8877 18.5019 66.9344 18.5775Z" fill="white"/>
<path fill-rule="evenodd" clip-rule="evenodd" d="M63.1764 62.6873C61.8392 62.7945 60.6957 63.4145 60.0631 63.9444C59.8976 64.0831 59.6557 64.0569 59.5229 63.8859C59.39 63.7149 59.4165 63.4639 59.582 63.3253C60.3158 62.7105 61.604 62.0141 63.1209 61.8925C64.6559 61.7694 66.4058 62.2376 68.0162 63.9264C68.165 64.0825 68.1631 64.3349 68.0118 64.49C67.8606 64.6452 67.6173 64.6445 67.4684 64.4884C66.0223 62.9719 64.4956 62.5815 63.1764 62.6873Z" fill="#838383"/>
<ellipse rx="1.91622" ry="1.9179" transform="matrix(0.997391 0.0721904 -0.0717029 0.997426 56.8987 52.8091)" fill="#838383"/>
<ellipse rx="1.91622" ry="1.9179" transform="matrix(0.997391 0.0721903 -0.0717031 0.997426 71.8401 53.8872)" fill="#838383"/>
<defs>
<linearGradient id="paint0_linear_3121_17620" x1="32.7783" y1="0.771484" x2="26.5326" y2="7.34528" gradientUnits="userSpaceOnUse">
<stop stop-color="#F3D17C"/>
<stop offset="1" stop-color="#EFBF1C"/>
</linearGradient>
<linearGradient id="paint1_linear_3121_17620" x1="70.4066" y1="13.7912" x2="63.7049" y2="19.8981" gradientUnits="userSpaceOnUse">
<stop stop-color="#F3D17C"/>
<stop offset="1" stop-color="#EFBF1C"/>
</linearGradient>
</defs>
</svg>
