<svg width="170" height="182" viewBox="0 0 170 182" fill="none" xmlns="http://www.w3.org/2000/svg">
<path d="M104.828 36.4816H60.3335C59.3195 36.4829 58.3475 36.8888 57.6305 37.6104C56.9135 38.332 56.5102 39.3103 56.509 40.3308V139.859L55.999 140.015L45.0838 143.38C44.5665 143.538 44.0078 143.484 43.5302 143.229C43.0527 142.973 42.6954 142.537 42.5367 142.017L10.069 35.2781C9.91098 34.7575 9.96483 34.195 10.2187 33.7143C10.4726 33.2336 10.9057 32.874 11.4229 32.7145L28.2432 27.5309L77.0059 12.5087L93.8261 7.32508C94.0821 7.24579 94.3511 7.21808 94.6177 7.24354C94.8843 7.269 95.1434 7.34713 95.38 7.47346C95.6165 7.59979 95.8261 7.77183 95.9965 7.97974C96.167 8.18766 96.295 8.42736 96.3733 8.68513L104.672 35.9684L104.828 36.4816Z" fill="#F4F4F4"/>
<path d="M114.537 35.9686L104.535 3.08597C104.368 2.53808 104.096 2.02857 103.734 1.58654C103.372 1.14452 102.927 0.778647 102.424 0.509833C101.921 0.241018 101.371 0.0745278 100.804 0.019882C100.238 -0.0347637 99.6659 0.0235059 99.1216 0.191355L75.4733 7.47664L26.7132 22.5014L3.06488 29.7893C1.96631 30.1288 1.04645 30.8931 0.50723 31.9145C-0.0319925 32.9359 -0.146531 34.1309 0.188761 35.2372L34.3749 147.616C34.6473 148.509 35.1969 149.291 35.9431 149.847C36.6892 150.402 37.5926 150.703 38.5208 150.704C38.9504 150.704 39.3775 150.639 39.7879 150.511L55.9988 145.517L56.5088 145.358V144.822L55.9988 144.978L39.6375 150.021C38.6678 150.318 37.6205 150.217 36.7252 149.738C35.83 149.259 35.1599 148.443 34.862 147.468L0.678405 35.0858C0.530801 34.6026 0.479357 34.0948 0.527017 33.5915C0.574677 33.0883 0.720501 32.5994 0.956148 32.1529C1.19179 31.7065 1.51264 31.3112 1.90029 30.9897C2.28794 30.6682 2.7348 30.4268 3.21527 30.2794L26.8636 22.9916L75.6238 7.96935L99.2721 0.681494C99.6365 0.569558 100.015 0.512485 100.396 0.512127C101.214 0.513975 102.01 0.779303 102.667 1.26925C103.324 1.75919 103.808 2.44801 104.048 3.23481L114.004 35.9686L114.162 36.4818H114.693L114.537 35.9686Z" fill="#FEE59D"/>
<path d="M31.279 32.7998C30.7876 32.7995 30.3092 32.6406 29.9141 32.3466C29.5189 32.0525 29.2278 31.6388 29.0834 31.166L25.7993 20.3698C25.7111 20.0798 25.6804 19.7751 25.7092 19.4732C25.738 19.1713 25.8255 18.878 25.9669 18.6102C26.1083 18.3423 26.3007 18.1051 26.5332 17.9121C26.7657 17.7191 27.0336 17.5741 27.3218 17.4854L72.1807 3.66316C72.7626 3.48443 73.3912 3.54539 73.9285 3.83264C74.4659 4.1199 74.868 4.60998 75.0467 5.19533L78.3308 15.9917C78.5082 16.5774 78.4476 17.21 78.1622 17.7508C77.8768 18.2915 77.39 18.6963 76.8084 18.8762L31.9494 32.6984C31.7322 32.7655 31.5063 32.7997 31.279 32.7998Z" fill="#FEE59D"/>
<path d="M48.4822 11.5341C51.2985 11.5341 53.5815 9.23631 53.5815 6.40182C53.5815 3.56734 51.2985 1.26953 48.4822 1.26953C45.6659 1.26953 43.3828 3.56734 43.3828 6.40182C43.3828 9.23631 45.6659 11.5341 48.4822 11.5341Z" fill="url(#paint0_linear_2200_9870)"/>
<path d="M48.482 9.6522C50.2654 9.6522 51.7111 8.19715 51.7111 6.40227C51.7111 4.60739 50.2654 3.15234 48.482 3.15234C46.6986 3.15234 45.2529 4.60739 45.2529 6.40227C45.2529 8.19715 46.6986 9.6522 48.482 9.6522Z" fill="white"/>
<g filter="url(#filter0_d_2200_9870)">
<path d="M54.6648 36.8335C54.8227 34.63 56.7368 32.9735 58.9402 33.1334L158.997 40.399C161.2 40.559 162.858 42.475 162.7 44.6785L154.32 161.641C154.163 163.844 152.248 165.501 150.045 165.341L49.9884 158.075C47.7851 157.915 46.1269 155.999 46.2848 153.796L54.6648 36.8335Z" fill="#F4F4F4"/>
<path d="M112.429 36.623L58.8975 32.7358C57.7512 32.6542 56.6197 33.0334 55.7508 33.7902C54.882 34.547 54.3467 35.6196 54.2625 36.773L46.7842 141.149L47.304 141.03L54.7711 36.81C54.8452 35.7922 55.3174 34.8456 56.0841 34.1778C56.8508 33.51 57.8494 33.1755 58.8608 33.2477L112.55 37.1463L112.429 36.623ZM159.095 40.0116L58.8975 32.7358C57.7512 32.6542 56.6197 33.0334 55.7508 33.7902C54.882 34.547 54.3467 35.6196 54.2625 36.773L45.8636 153.998C45.7826 155.152 46.1594 156.29 46.9114 157.165C47.6633 158.039 48.7291 158.578 49.8751 158.663L150.072 165.939C151.219 166.02 152.35 165.641 153.219 164.884C154.088 164.128 154.623 163.055 154.707 161.902L163.106 44.6766C163.187 43.523 162.81 42.3841 162.058 41.5096C161.306 40.6351 160.241 40.0964 159.095 40.0116ZM154.199 161.865C154.125 162.882 153.652 163.829 152.886 164.497C152.119 165.165 151.12 165.499 150.109 165.427L49.9118 158.151C48.9006 158.076 47.96 157.601 47.2965 156.829C46.6329 156.058 46.3006 155.053 46.3723 154.035L54.7711 36.81C54.8452 35.7922 55.3174 34.8456 56.0841 34.1778C56.8508 33.51 57.8494 33.1755 58.8608 33.2477L159.058 40.5235C160.069 40.5981 161.01 41.0734 161.673 41.8451C162.337 42.6167 162.669 43.6218 162.598 44.6397L154.199 161.865Z" fill="#B7B7B7"/>
<path d="M131.586 49.3313L84.7929 45.9335C84.1862 45.8888 83.6218 45.6036 83.2237 45.1406C82.8255 44.6776 82.6261 44.0745 82.6692 43.4638L83.4761 32.202C83.5205 31.5913 83.8038 31.0233 84.2638 30.6226C84.7239 30.2219 85.323 30.0213 85.9299 30.0646L132.723 33.4625C133.329 33.5072 133.894 33.7924 134.292 34.2554C134.69 34.7184 134.889 35.3214 134.846 35.9322L134.039 47.194C133.995 47.8047 133.712 48.3726 133.252 48.7733C132.792 49.174 132.192 49.3747 131.586 49.3313Z" fill="#FEE59D"/>
<path d="M109.271 32.5331C112.08 32.7371 114.521 30.6106 114.724 27.7834C114.926 24.9563 112.813 22.4991 110.004 22.2951C107.195 22.0911 104.754 24.2176 104.551 27.0448C104.349 29.8719 106.462 32.3291 109.271 32.5331Z" fill="url(#paint1_linear_2200_9870)"/>
<path d="M109.414 30.5312C111.125 30.6554 112.612 29.3602 112.735 27.6382C112.859 25.9162 111.572 24.4195 109.861 24.2953C108.15 24.171 106.663 25.4663 106.539 27.1883C106.416 28.9103 107.703 30.4069 109.414 30.5312Z" fill="white"/>
<path fill-rule="evenodd" clip-rule="evenodd" d="M103.27 103.028C101.084 103.203 99.2148 104.22 98.181 105.09C97.9105 105.317 97.5151 105.274 97.2978 104.993C97.0805 104.712 97.1236 104.3 97.3941 104.073C98.5933 103.064 100.699 101.921 103.178 101.723C105.688 101.521 108.549 102.291 111.182 105.065C111.426 105.321 111.423 105.736 111.175 105.99C110.928 106.245 110.531 106.244 110.287 105.987C107.922 103.497 105.426 102.855 103.27 103.028Z" fill="#B7B7B7"/>
<ellipse rx="3.13446" ry="3.15" transform="matrix(0.997321 0.0731602 -0.070742 0.997496 93.0097 86.7894)" fill="#B7B7B7"/>
<ellipse rx="3.13446" ry="3.15" transform="matrix(0.997321 0.0731602 -0.070742 0.997496 117.431 88.5628)" fill="#B7B7B7"/>
</g>
<defs>
<filter id="filter0_d_2200_9870" x="27.853" y="14.2812" width="141.264" height="167.668" filterUnits="userSpaceOnUse" color-interpolation-filters="sRGB">
<feFlood flood-opacity="0" result="BackgroundImageFix"/>
<feColorMatrix in="SourceAlpha" type="matrix" values="0 0 0 0 0 0 0 0 0 0 0 0 0 0 0 0 0 0 127 0" result="hardAlpha"/>
<feOffset dx="-6" dy="4"/>
<feGaussianBlur stdDeviation="6"/>
<feComposite in2="hardAlpha" operator="out"/>
<feColorMatrix type="matrix" values="0 0 0 0 0 0 0 0 0 0 0 0 0 0 0 0 0 0 0.12 0"/>
<feBlend mode="normal" in2="BackgroundImageFix" result="effect1_dropShadow_2200_9870"/>
<feBlend mode="normal" in="SourceGraphic" in2="effect1_dropShadow_2200_9870" result="shape"/>
</filter>
<linearGradient id="paint0_linear_2200_9870" x1="44.1477" y1="11.3679" x2="54.7564" y2="0.563653" gradientUnits="userSpaceOnUse">
<stop stop-color="#B67F49"/>
<stop offset="0.294792" stop-color="#FFCF56"/>
<stop offset="0.676759" stop-color="#FFBB3F"/>
<stop offset="1" stop-color="#FFD75F"/>
</linearGradient>
<linearGradient id="paint1_linear_2200_9870" x1="104.959" y1="32.0534" x2="116.312" y2="22.0449" gradientUnits="userSpaceOnUse">
<stop stop-color="#B67F49"/>
<stop offset="0.294792" stop-color="#FFCF56"/>
<stop offset="0.676759" stop-color="#FFBB3F"/>
<stop offset="1" stop-color="#FFD75F"/>
</linearGradient>
</defs>
</svg>
