<svg width="20" height="18" viewBox="0 0 20 18" fill="none" xmlns="http://www.w3.org/2000/svg">
<path d="M8.97078 5.00631C8.86417 4.83744 8.66604 4.74049 8.45914 4.75541L4.01205 5.08131C3.56181 5.11433 3.16076 5.3382 2.91165 5.6956L1.04537 8.37358C0.856494 8.64462 0.826432 8.98378 0.964994 9.28089C1.10352 9.57799 1.38827 9.78501 1.72665 9.83474L5.33262 10.3646C5.36068 10.3687 5.3887 10.3708 5.4165 10.3708C5.60121 10.3707 5.77597 10.2819 5.8775 10.1312L8.96239 5.55266C9.07413 5.38676 9.07734 5.17522 8.97078 5.00631Z" fill="#D3A300"/>
<path d="M14.6113 10.2876C14.4308 10.1878 14.2047 10.1909 14.0275 10.2955L9.13492 13.1823C8.94966 13.2916 8.85183 13.4916 8.88545 13.6922L9.45163 17.0667C9.50478 17.3834 9.72603 17.6499 10.0436 17.7795C10.1756 17.8334 10.3154 17.86 10.4545 17.86C10.6499 17.86 10.8439 17.8075 11.0131 17.7043L13.8748 15.9578C14.2567 15.7247 14.4959 15.3494 14.5312 14.928L14.8794 10.7664C14.8956 10.5728 14.7918 10.3874 14.6113 10.2876Z" fill="#D3A300"/>
<path d="M7.93472 14.4719C8.15512 14.6782 8.4683 14.7747 8.77571 14.7266C13.2839 14.0212 16.8512 10.5282 18.2093 8.07104C19.7174 5.34264 19.7732 2.4594 19.6944 1.10719C19.6674 0.643828 19.2727 0.274474 18.7776 0.249185C17.3326 0.175459 14.2516 0.227731 11.336 1.63899C8.7103 2.90991 4.97773 6.24825 4.22394 10.467C4.17255 10.7547 4.27562 11.0477 4.49602 11.254L7.93472 14.4719Z" fill="#D3A300"/>
<path d="M4.22389 10.4808C4.17268 10.7675 4.2754 11.0596 4.49506 11.2651L7.92214 14.4722C8.14179 14.6778 8.45391 14.7739 8.76029 14.726C9.73792 14.573 10.6711 14.2884 11.5469 13.9116L5.09413 7.87305C4.6915 8.69262 4.38737 9.56592 4.22389 10.4808Z" fill="url(#paint0_linear_3121_14738)"/>
<path d="M1.41725 14.7383C1.555 14.7383 1.69281 14.6891 1.7979 14.5908L3.55557 12.946C3.76582 12.7492 3.76582 12.4302 3.55557 12.2335C3.34536 12.0368 3.00451 12.0368 2.79422 12.2335L1.03659 13.8783C0.826345 14.075 0.826345 14.394 1.03659 14.5908C1.14171 14.6892 1.27946 14.7383 1.41725 14.7383Z" fill="#D3A300"/>
<path d="M5.22122 13.7936C5.00886 13.5948 4.66448 13.5948 4.45207 13.7936L1.03821 16.9883C0.825806 17.1871 0.825806 17.5093 1.03821 17.7081C1.14441 17.8075 1.2836 17.8572 1.4228 17.8572C1.562 17.8572 1.70119 17.8075 1.80736 17.7081L5.22122 14.5133C5.43362 14.3146 5.43362 13.9923 5.22122 13.7936Z" fill="#D3A300"/>
<path d="M6.8876 15.3546C6.67739 15.1579 6.3365 15.1579 6.12626 15.3546L4.36862 16.9994C4.15838 17.1961 4.15838 17.5151 4.36862 17.7119C4.47375 17.8102 4.61153 17.8594 4.74928 17.8594C4.88703 17.8594 5.02485 17.8102 5.12993 17.7119L6.8876 16.067C7.09785 15.8703 7.09785 15.5513 6.8876 15.3546Z" fill="#D3A300"/>
<path d="M6.21094 12.8424L7.9235 14.4688C8.14303 14.6773 8.45496 14.7748 8.76117 14.7262C9.73824 14.571 10.6709 14.2824 11.5462 13.9002L8.32167 10.8379L6.21094 12.8424Z" fill="url(#paint1_linear_3121_14738)"/>
<ellipse cx="12.8809" cy="6.25552" rx="1.83399" ry="1.94692" fill="white"/>
<defs>
<linearGradient id="paint0_linear_3121_14738" x1="11.5469" y1="7.87305" x2="4.7205" y2="15.5585" gradientUnits="userSpaceOnUse">
<stop stop-color="#735200"/>
<stop offset="1" stop-color="#EFBF1C"/>
</linearGradient>
<linearGradient id="paint1_linear_3121_14738" x1="11.5462" y1="10.8379" x2="7.88725" y2="16.1107" gradientUnits="userSpaceOnUse">
<stop stop-color="#735200"/>
<stop offset="1" stop-color="#EFBF1C"/>
</linearGradient>
</defs>
</svg>
