<svg width="56" height="60" viewBox="0 0 56 60" fill="none" xmlns="http://www.w3.org/2000/svg">
<path d="M27.907 0L0 16.25V45L27.907 60L55.8139 45V16.25L27.907 0Z" fill="#7C7C7C" fill-opacity="0.24"/>
<path d="M27.9076 5.58203L5.58203 18.8088V42.2099L27.9076 54.4192L50.2332 42.2099V18.8088L27.9076 5.58203Z" fill="#585858" fill-opacity="0.24"/>
<path d="M27.9074 13.9531L12.5586 23.0229V39.0694L27.9074 47.4415L43.2563 39.0694V23.0229L27.9074 13.9531Z" fill="#222222" fill-opacity="0.8"/>
<path d="M21.0404 29.8C21.0404 32.728 21.8404 35.144 24.8324 35.144C26.2884 35.144 27.3284 34.584 27.8564 33.56C28.4164 32.536 28.6084 31.384 28.6084 29.8C28.6084 28.2 28.4164 27.032 27.8564 26.008C27.3284 24.984 26.3044 24.424 24.8324 24.424C23.3764 24.424 22.3524 24.984 21.7924 26.008C21.2644 27.032 21.0404 28.216 21.0404 29.8ZM22.4804 29.8C22.4804 27.352 23.0884 25.864 24.8324 25.864C26.5764 25.864 27.1844 27.352 27.1844 29.8C27.1844 32.232 26.5764 33.72 24.8324 33.72C23.0884 33.72 22.4804 32.232 22.4804 29.8ZM33.4799 35V24.456L30.3439 25.592V26.968L32.0399 26.376V35H33.4799Z" fill="#838383"/>
</svg>
