<svg width="56" height="60" viewBox="0 0 56 60" fill="none" xmlns="http://www.w3.org/2000/svg">
<path d="M27.907 0L0 16.25V45L27.907 60L55.8139 45V16.25L27.907 0Z" fill="#7C7C7C" fill-opacity="0.24"/>
<path d="M27.9076 5.58203L5.58203 18.8088V42.2099L27.9076 54.4192L50.2332 42.2099V18.8088L27.9076 5.58203Z" fill="#585858" fill-opacity="0.24"/>
<path d="M27.9074 13.9531L12.5586 23.0229V39.0694L27.9074 47.4415L43.2563 39.0694V23.0229L27.9074 13.9531Z" fill="#222222" fill-opacity="0.8"/>
<path d="M18.9779 29.8C18.9779 32.728 19.7779 35.144 22.7699 35.144C24.2259 35.144 25.2659 34.584 25.7939 33.56C26.3539 32.536 26.5459 31.384 26.5459 29.8C26.5459 28.2 26.3539 27.032 25.7939 26.008C25.2659 24.984 24.2419 24.424 22.7699 24.424C21.3139 24.424 20.2899 24.984 19.7299 26.008C19.2019 27.032 18.9779 28.216 18.9779 29.8ZM20.4179 29.8C20.4179 27.352 21.0259 25.864 22.7699 25.864C24.5139 25.864 25.1219 27.352 25.1219 29.8C25.1219 32.232 24.5139 33.72 22.7699 33.72C21.0259 33.72 20.4179 32.232 20.4179 29.8ZM36.3934 32.856V31.496H34.8894V24.552H33.8174L28.0254 32.856H33.4654V35H34.8894V32.856H36.3934ZM33.4654 27.144V31.496H30.4734L33.4654 27.144Z" fill="#838383"/>
</svg>
