<svg width="60" height="60" viewBox="0 0 60 60" fill="none" xmlns="http://www.w3.org/2000/svg">
<path opacity="0.65" d="M30 60C46.5685 60 60 46.5685 60 30C60 13.4315 46.5685 0 30 0C13.4315 0 0 13.4315 0 30C0 46.5685 13.4315 60 30 60Z" fill="#B9A404" fill-opacity="0.25"/>
<path d="M29.9982 54.7756C43.6813 54.7756 54.7737 43.6833 54.7737 30.0001C54.7737 16.317 43.6813 5.22461 29.9982 5.22461C16.315 5.22461 5.22266 16.317 5.22266 30.0001C5.22266 43.6833 16.315 54.7756 29.9982 54.7756Z" fill="#C3AD0A" fill-opacity="0.29"/>
<path d="M30 49.5C40.7696 49.5 49.5 40.7696 49.5 30C49.5 19.2305 40.7696 10.5 30 10.5C19.2304 10.5 10.5 19.2305 10.5 30C10.5 40.7696 19.2304 49.5 30 49.5Z" fill="#EFBF1C" fill-opacity="0.5"/>
<path d="M21.056 29.8C21.056 32.728 21.856 35.144 24.848 35.144C26.304 35.144 27.344 34.584 27.872 33.56C28.432 32.536 28.624 31.384 28.624 29.8C28.624 28.2 28.432 27.032 27.872 26.008C27.344 24.984 26.32 24.424 24.848 24.424C23.392 24.424 22.368 24.984 21.808 26.008C21.28 27.032 21.056 28.216 21.056 29.8ZM22.496 29.8C22.496 27.352 23.104 25.864 24.848 25.864C26.592 25.864 27.2 27.352 27.2 29.8C27.2 32.232 26.592 33.72 24.848 33.72C23.104 33.72 22.496 32.232 22.496 29.8ZM32.0555 26.792C32.5195 26.104 33.1275 25.784 33.8795 25.848C34.4395 25.88 34.8555 26.088 35.0955 26.456C35.2875 26.728 35.3515 27.096 35.2715 27.528C35.1435 28.232 34.5515 28.744 33.8315 28.728H32.6475V30.12H33.8315C34.3915 30.12 34.8555 30.312 35.2555 30.68C35.6555 31.048 35.8635 31.496 35.8475 31.992C35.8315 32.488 35.5915 32.92 35.1275 33.256C34.6795 33.592 34.1675 33.736 33.5755 33.704H33.5915C32.7755 33.64 31.9755 33.016 31.6395 32.264L30.3755 32.952C30.9355 34.168 32.1195 35.048 33.4795 35.128C34.4555 35.208 35.3035 34.952 36.0555 34.376C36.8075 33.8 37.2235 33.064 37.3035 32.184C37.3515 31.608 37.2235 31.048 36.9035 30.488C36.5995 29.928 36.1835 29.56 35.6555 29.368C36.2155 29.048 36.5995 28.568 36.7915 27.944C36.8555 27.72 36.8875 27.512 36.8875 27.304C36.9035 26.552 36.6475 25.896 36.0875 25.336C35.5435 24.76 34.8555 24.456 34.0075 24.408C32.7275 24.328 31.5595 24.936 30.9835 25.944L32.0555 26.792Z" fill="white"/>
</svg>
