<svg width="56" height="60" viewBox="0 0 56 60" fill="none" xmlns="http://www.w3.org/2000/svg">
<path d="M27.907 0L0 16.25V45L27.907 60L55.8139 45V16.25L27.907 0Z" fill="#EBCA58" fill-opacity="0.3"/>
<path d="M27.9076 5.58203L5.58203 18.8088V42.2099L27.9076 54.4192L50.2332 42.2099V18.8088L27.9076 5.58203Z" fill="#EBCA58" fill-opacity="0.4"/>
<path d="M27.9074 13.9531L12.5586 23.0229V39.0694L27.9074 47.4415L43.2563 39.0694V23.0229L27.9074 13.9531Z" fill="#EBCA58" fill-opacity="0.7"/>
<path d="M19.928 29.752C19.928 33.352 21.24 35.16 23.848 35.16C25.32 35.16 26.376 34.584 26.936 33.56C27.512 32.536 27.736 31.352 27.736 29.752C27.736 28.152 27.512 26.936 26.936 25.912C26.376 24.888 25.32 24.312 23.848 24.312C21.24 24.312 19.928 26.12 19.928 29.752ZM22.168 29.752C22.168 27.576 22.728 26.488 23.848 26.488C24.952 26.488 25.496 27.576 25.496 29.752C25.496 31.912 24.952 32.984 23.848 32.984C22.728 32.984 22.168 31.912 22.168 29.752ZM36.2883 32.888H33.0563L35.4723 30.152C36.2083 29.32 36.5763 28.44 36.5763 27.496C36.5763 26.568 36.2403 25.8 35.5683 25.208C34.9123 24.616 34.0963 24.312 33.1523 24.312C31.1843 24.312 29.8083 25.56 29.4883 27.56L31.5363 27.912C31.6643 27.064 32.2403 26.456 33.0243 26.456C33.8403 26.456 34.3363 26.92 34.3363 27.496C34.3363 27.864 34.1443 28.248 33.7763 28.68L29.4723 33.784V35H36.2883V32.888Z" fill="white"/>
</svg>
