<svg width="56" height="60" viewBox="0 0 56 60" fill="none" xmlns="http://www.w3.org/2000/svg">
<path d="M27.907 0L0 16.25V45L27.907 60L55.8139 45V16.25L27.907 0Z" fill="#7C7C7C" fill-opacity="0.24"/>
<path d="M27.9076 5.58203L5.58203 18.8088V42.2099L27.9076 54.4192L50.2332 42.2099V18.8088L27.9076 5.58203Z" fill="#585858" fill-opacity="0.24"/>
<path d="M27.9074 13.9531L12.5586 23.0229V39.0694L27.9074 47.4415L43.2563 39.0694V23.0229L27.9074 13.9531Z" fill="#222222" fill-opacity="0.8"/>
<path d="M19.4935 29.8C19.4935 32.728 20.2935 35.144 23.2855 35.144C24.7415 35.144 25.7815 34.584 26.3095 33.56C26.8695 32.536 27.0615 31.384 27.0615 29.8C27.0615 28.2 26.8695 27.032 26.3095 26.008C25.7815 24.984 24.7575 24.424 23.2855 24.424C21.8295 24.424 20.8055 24.984 20.2455 26.008C19.7175 27.032 19.4935 28.216 19.4935 29.8ZM20.9335 29.8C20.9335 27.352 21.5415 25.864 23.2855 25.864C25.0295 25.864 25.6375 27.352 25.6375 29.8C25.6375 32.232 25.0295 33.72 23.2855 33.72C21.5415 33.72 20.9335 32.232 20.9335 29.8ZM29.085 35H35.533V33.56H31.549L34.381 30.216C35.133 29.352 35.517 28.456 35.517 27.512C35.517 26.6 35.197 25.864 34.573 25.288C33.949 24.712 33.165 24.424 32.237 24.424C31.405 24.424 30.685 24.68 30.077 25.176C29.469 25.672 29.101 26.344 28.957 27.176L30.349 27.512C30.493 26.488 31.277 25.864 32.237 25.864C33.277 25.864 34.093 26.536 34.093 27.512C34.093 28.056 33.837 28.632 33.325 29.224L29.085 34.36V35Z" fill="#838383"/>
</svg>
