<svg width="60" height="60" viewBox="0 0 60 60" fill="none" xmlns="http://www.w3.org/2000/svg">
<path opacity="0.65" d="M30 60C46.5685 60 60 46.5685 60 30C60 13.4315 46.5685 0 30 0C13.4315 0 0 13.4315 0 30C0 46.5685 13.4315 60 30 60Z" fill="#B9A404" fill-opacity="0.25"/>
<path d="M29.9982 54.7756C43.6813 54.7756 54.7737 43.6833 54.7737 30.0001C54.7737 16.317 43.6813 5.22461 29.9982 5.22461C16.315 5.22461 5.22266 16.317 5.22266 30.0001C5.22266 43.6833 16.315 54.7756 29.9982 54.7756Z" fill="#C3AD0A" fill-opacity="0.29"/>
<path d="M30 49.5C40.7696 49.5 49.5 40.7696 49.5 30C49.5 19.2305 40.7696 10.5 30 10.5C19.2304 10.5 10.5 19.2305 10.5 30C10.5 40.7696 19.2304 49.5 30 49.5Z" fill="#EFBF1C" fill-opacity="0.5"/>
<path d="M21.056 28.8C21.056 31.728 21.856 34.144 24.848 34.144C26.304 34.144 27.344 33.584 27.872 32.56C28.432 31.536 28.624 30.384 28.624 28.8C28.624 27.2 28.432 26.032 27.872 25.008C27.344 23.984 26.32 23.424 24.848 23.424C23.392 23.424 22.368 23.984 21.808 25.008C21.28 26.032 21.056 27.216 21.056 28.8ZM22.496 28.8C22.496 26.352 23.104 24.864 24.848 24.864C26.592 24.864 27.2 26.352 27.2 28.8C27.2 31.232 26.592 32.72 24.848 32.72C23.104 32.72 22.496 31.232 22.496 28.8ZM33.4955 34V23.456L30.3595 24.592V25.968L32.0555 25.376V34H33.4955Z" fill="white"/>
</svg>
