<svg width="56" height="60" viewBox="0 0 56 60" fill="none" xmlns="http://www.w3.org/2000/svg">
<path d="M27.907 0L0 16.25V45L27.907 60L55.8139 45V16.25L27.907 0Z" fill="#7C7C7C" fill-opacity="0.24"/>
<path d="M27.9076 5.58203L5.58203 18.8088V42.2099L27.9076 54.4192L50.2332 42.2099V18.8088L27.9076 5.58203Z" fill="#585858" fill-opacity="0.24"/>
<path d="M27.9074 13.9531L12.5586 23.0229V39.0694L27.9074 47.4415L43.2563 39.0694V23.0229L27.9074 13.9531Z" fill="#222222" fill-opacity="0.8"/>
<path d="M19.431 29.8C19.431 32.728 20.231 35.144 23.223 35.144C24.679 35.144 25.719 34.584 26.247 33.56C26.807 32.536 26.999 31.384 26.999 29.8C26.999 28.2 26.807 27.032 26.247 26.008C25.719 24.984 24.695 24.424 23.223 24.424C21.767 24.424 20.743 24.984 20.183 26.008C19.655 27.032 19.431 28.216 19.431 29.8ZM20.871 29.8C20.871 27.352 21.479 25.864 23.223 25.864C24.967 25.864 25.575 27.352 25.575 29.8C25.575 32.232 24.967 33.72 23.223 33.72C21.479 33.72 20.871 32.232 20.871 29.8ZM30.4305 26.792C30.8945 26.104 31.5025 25.784 32.2545 25.848C32.8145 25.88 33.2305 26.088 33.4705 26.456C33.6625 26.728 33.7265 27.096 33.6465 27.528C33.5185 28.232 32.9265 28.744 32.2065 28.728H31.0225V30.12H32.2065C32.7665 30.12 33.2305 30.312 33.6305 30.68C34.0305 31.048 34.2385 31.496 34.2225 31.992C34.2065 32.488 33.9665 32.92 33.5025 33.256C33.0545 33.592 32.5425 33.736 31.9505 33.704H31.9665C31.1505 33.64 30.3505 33.016 30.0145 32.264L28.7505 32.952C29.3105 34.168 30.4945 35.048 31.8545 35.128C32.8305 35.208 33.6785 34.952 34.4305 34.376C35.1825 33.8 35.5985 33.064 35.6785 32.184C35.7265 31.608 35.5985 31.048 35.2785 30.488C34.9745 29.928 34.5585 29.56 34.0305 29.368C34.5905 29.048 34.9745 28.568 35.1665 27.944C35.2305 27.72 35.2625 27.512 35.2625 27.304C35.2785 26.552 35.0225 25.896 34.4625 25.336C33.9185 24.76 33.2305 24.456 32.3825 24.408C31.1025 24.328 29.9345 24.936 29.3585 25.944L30.4305 26.792Z" fill="#838383"/>
</svg>
