<svg width="23" height="23" viewBox="0 0 23 23" fill="none" xmlns="http://www.w3.org/2000/svg">
<path fill-rule="evenodd" clip-rule="evenodd" d="M22.2109 11.1055C22.2109 17.1802 17.2857 22.1055 11.2109 22.1055C5.13619 22.1055 0.210938 17.1802 0.210938 11.1055C0.210938 5.03072 5.13619 0.105469 11.2109 0.105469C17.2857 0.105469 22.2109 5.03072 22.2109 11.1055ZM11.6051 8.22622C10.5354 8.6708 8.39677 9.59205 5.19027 10.9891C4.6696 11.1962 4.39644 11.3988 4.37169 11.5968C4.32952 11.9323 4.74935 12.0643 5.31952 12.2431C5.39744 12.2678 5.4781 12.2926 5.5606 12.3201C6.12252 12.5025 6.87785 12.7161 7.27019 12.7243C7.62677 12.7316 8.0246 12.585 8.46369 12.2843C11.4594 10.2612 13.0058 9.23913 13.1029 9.21714C13.1717 9.20155 13.267 9.18139 13.3312 9.23914C13.3954 9.29597 13.3889 9.40414 13.3825 9.43347C13.3404 9.61038 11.6959 11.1403 10.8434 11.9323C10.5775 12.1789 10.3896 12.354 10.3511 12.3943C10.2649 12.4832 10.1769 12.5685 10.0926 12.6501C9.5701 13.1524 9.1796 13.5301 10.1146 14.1461C10.5638 14.4421 10.9231 14.6869 11.2815 14.9307C11.6729 15.1975 12.0634 15.4633 12.5694 15.7951C12.6978 15.8795 12.8206 15.9666 12.9407 16.0518C13.3963 16.3772 13.806 16.6687 14.312 16.6229C14.6054 16.5954 14.9097 16.3195 15.0637 15.4954C15.4276 13.5466 16.1444 9.32622 16.3104 7.58639C16.3205 7.44193 16.3143 7.2968 16.292 7.15372C16.2787 7.03816 16.2224 6.93182 16.1344 6.8558C16.0033 6.74855 15.7998 6.72564 15.7081 6.72747C15.2947 6.7348 14.6604 6.95572 11.6051 8.22622Z" fill="#7E7E7E"/>
</svg>
