<svg width="23" height="23" viewBox="0 0 23 23" fill="none" xmlns="http://www.w3.org/2000/svg">
<path d="M11.2109 0.105469C5.13638 0.105469 0.210938 5.03092 0.210938 11.1055C0.210938 17.18 5.13638 22.1055 11.2109 22.1055C17.2855 22.1055 22.2109 17.18 22.2109 11.1055C22.2109 5.03092 17.2855 0.105469 11.2109 0.105469ZM16.4973 8.39721C16.5047 8.51261 16.5047 8.63292 16.5047 8.75078C16.5047 12.3552 13.7596 16.5073 8.7433 16.5073C7.19643 16.5073 5.7625 16.0579 4.55446 15.2845C4.77545 15.309 4.98661 15.3189 5.2125 15.3189C6.48929 15.3189 7.66295 14.8867 8.59844 14.155C7.40022 14.1305 6.39353 13.3448 6.04978 12.2644C6.46964 12.3258 6.84777 12.3258 7.27991 12.2153C6.66294 12.0899 6.1084 11.7549 5.71049 11.267C5.31257 10.7791 5.09584 10.1685 5.0971 9.53895V9.50458C5.45804 9.70837 5.88281 9.83359 6.32723 9.85078C5.95363 9.60179 5.64724 9.26447 5.43523 8.86871C5.22322 8.47296 5.11213 8.031 5.11183 7.58203C5.11183 7.07377 5.24442 6.60971 5.48259 6.20703C6.16739 7.05004 7.02193 7.73952 7.99065 8.23065C8.95937 8.72178 10.0206 9.00357 11.1054 9.0577C10.7199 7.20391 12.1047 5.70368 13.7694 5.70368C14.5551 5.70368 15.2623 6.0327 15.7607 6.56306C16.377 6.44766 16.9663 6.21685 17.4917 5.90748C17.2879 6.5385 16.8607 7.07132 16.2935 7.4077C16.8435 7.34877 17.3739 7.19654 17.865 6.98292C17.4942 7.52801 17.0301 8.01172 16.4973 8.39721Z" fill="#7E7E7E"/>
</svg>
