<svg width="32" height="32" viewBox="0 0 32 32" fill="none" xmlns="http://www.w3.org/2000/svg">
<path d="M27.5151 24.4862H23.2727C20.5994 24.4862 18.4244 22.3112 18.4244 19.6378C18.4244 16.9644 20.5994 14.7894 23.2727 14.7894H27.5151C27.8501 14.7894 28.1212 14.5183 28.1212 14.1833V12.3652C28.1212 11.0943 27.1354 10.0607 25.8899 9.96052L22.4093 3.88107C22.0867 3.31881 21.5659 2.91694 20.9427 2.75007C20.3224 2.58433 19.6738 2.67137 19.1186 2.99449L7.18681 9.94097H5.09121C3.75425 9.94097 2.66699 11.0282 2.66699 12.3652V26.9104C2.66699 28.2474 3.75419 29.3346 5.09121 29.3346H25.697C27.0339 29.3346 28.1212 28.2474 28.1212 26.9104V25.0923C28.1212 24.7573 27.8501 24.4862 27.5151 24.4862ZM23.1609 7.63442L24.4815 9.94097H19.1991L23.1609 7.63442ZM9.59586 9.94097L19.7288 4.04203C20.0028 3.88164 20.323 3.83903 20.629 3.92073C20.9385 4.00357 21.1966 4.20362 21.357 4.48356L21.3582 4.48578L11.9885 9.94097H9.59586Z" fill="#8773F3"/>
<path d="M27.5154 16H23.273C21.2678 16 19.6367 17.6311 19.6367 19.6363C19.6367 21.6415 21.2678 23.2726 23.273 23.2726H27.5154C28.518 23.2726 29.3335 22.4571 29.3335 21.4545V17.8182C29.3335 16.8156 28.518 16 27.5154 16ZM23.273 20.8484C22.6049 20.8484 22.0609 20.3045 22.0609 19.6363C22.0609 18.9681 22.6049 18.4242 23.273 18.4242C23.9412 18.4242 24.4851 18.9681 24.4851 19.6363C24.4852 20.3045 23.9413 20.8484 23.273 20.8484Z" fill="#8773F3"/>
</svg>
