<svg width="33" height="33" viewBox="0 0 33 33" fill="none" xmlns="http://www.w3.org/2000/svg">
<path d="M16.3195 33C25.3325 33 32.639 25.6127 32.639 16.5C32.639 7.3873 25.3325 0 16.3195 0C7.30649 0 0 7.3873 0 16.5C0 25.6127 7.30649 33 16.3195 33Z" fill="#D3AE36"/>
<path d="M13.5625 15.3963L23.9339 9.40583V4.88672L13.5625 10.8772V15.3963Z" fill="white"/>
<path d="M8.95312 24.8534L21.996 17.234V12.7148L8.95312 20.2817V24.8534Z" fill="white"/>
<path d="M13.5625 28.113L13.772 17.656L17.753 15.3965L17.4911 25.906" fill="white"/>
<path d="M17.5972 21.385L17.6496 19.8086L13.7734 22.0156L17.5972 21.385Z" fill="white"/>
</svg>
