<svg width="26" height="17" viewBox="0 0 26 17" fill="none" xmlns="http://www.w3.org/2000/svg">
<path d="M24.6875 2.61587C24.5459 2.1314 24.2702 1.69279 23.8896 1.34666C23.4983 0.989882 23.0187 0.734673 22.4961 0.605117C20.5401 0.110424 12.7037 0.110425 12.7037 0.110425C9.43673 0.0747593 6.1706 0.231624 2.92372 0.580133C2.40107 0.71926 1.92235 0.980171 1.53015 1.33966C1.14479 1.69544 0.865659 2.13417 0.719845 2.61487C0.369573 4.42549 0.199386 6.26395 0.21158 8.10546C0.199082 9.94532 0.368851 11.7832 0.719845 13.5961C0.862534 14.0748 1.14062 14.5115 1.52703 14.8643C1.91343 15.217 2.39462 15.4719 2.92372 15.6068C4.90574 16.1005 12.7037 16.1005 12.7037 16.1005C15.9747 16.1362 19.245 15.9794 22.4961 15.6308C23.0187 15.5012 23.4983 15.246 23.8896 14.8893C24.275 14.5365 24.5489 14.0977 24.6864 13.62C25.0458 11.8101 25.2206 9.9709 25.2082 8.12845C25.2353 6.2782 25.0607 4.43031 24.6875 2.61487V2.61587ZM10.2123 11.5273V4.68459L16.7323 8.10646L10.2123 11.5273Z" fill="#7E7E7E"/>
</svg>
